<?xml version="1.0" encoding="UTF-8" standalone="no"?>
<!DOCTYPE svg PUBLIC "-//W3C//DTD SVG 1.1//EN" "http://www.w3.org/Graphics/SVG/1.1/DTD/svg11.dtd">
<!-- Created with Vectornator (http://vectornator.io/) -->
<svg height="100%" stroke-miterlimit="10" style="fill-rule:nonzero;clip-rule:evenodd;stroke-linecap:round;stroke-linejoin:round;" version="1.1" viewBox="0 0 1024 1024" width="100%" xml:space="preserve" xmlns="http://www.w3.org/2000/svg" xmlns:vectornator="http://vectornator.io" xmlns:xlink="http://www.w3.org/1999/xlink">
<defs/>
<g id="Layer-1" vectornator:layerName="Layer 1">
<path d="M20.5313 505.572C20.5313 237.594 237.693 20.3556 505.575 20.3556C773.456 20.3556 990.618 237.594 990.618 505.572C990.618 773.55 773.456 990.789 505.575 990.789C237.693 990.789 20.5313 773.55 20.5313 505.572Z" fill="#e5b7fb" fill-rule="nonzero" opacity="1" stroke="#e5b7fb" stroke-linecap="butt" stroke-linejoin="round" stroke-width="30" vectornator:layerName="Oval 1"/>
<path d="M476.952 583.985C492.552 583.985 507.752 582.385 522.552 579.185L579.552 675.185L598.152 675.185L538.152 574.385C559.752 566.785 576.952 555.085 589.752 539.285C602.552 523.485 608.952 502.985 608.952 477.785C608.952 460.185 605.552 444.785 598.752 431.585C591.952 418.385 582.652 407.285 570.852 398.285C559.052 389.285 545.152 382.485 529.152 377.885C513.152 373.285 495.752 370.985 476.952 370.985L412.152 370.985L412.152 675.185L427.752 675.185L427.752 583.985L476.952 583.985ZM427.752 569.585L427.752 385.385L476.952 385.385C513.352 385.385 541.852 393.385 562.452 409.385C583.052 425.385 593.352 448.185 593.352 477.785C593.352 507.385 583.052 530.085 562.452 545.885C541.852 561.685 513.352 569.585 476.952 569.585L427.752 569.585ZM352.152 322.985L490.152 322.985C515.752 322.985 539.452 326.385 561.252 333.185C583.052 339.985 601.952 349.985 617.952 363.185C633.952 376.385 646.452 392.685 655.452 412.085C664.452 431.485 668.952 453.785 668.952 478.985C668.952 498.985 666.152 515.985 660.552 529.985C654.952 543.985 648.752 555.585 641.952 564.785C633.952 575.185 624.952 583.985 614.952 591.185L689.952 723.185L539.952 723.185L479.952 621.785L479.952 723.185L352.152 723.185L352.152 322.985ZM479.952 519.785L486.552 519.785C501.752 519.785 514.652 516.385 525.252 509.585C535.852 502.785 541.152 491.385 541.152 475.385C541.152 459.385 535.852 447.985 525.252 441.185C514.652 434.385 501.752 430.985 486.552 430.985L479.952 430.985L479.952 519.785Z" fill="#ffffff" opacity="1" stroke="#ffffff" stroke-linecap="butt" stroke-linejoin="round" stroke-width="30" vectornator:layerName="Text 1"/>
<path d="M363.408 159.185L361.601 864.815" fill="none" opacity="1" stroke="#e5b7fb" stroke-linecap="round" stroke-linejoin="round" stroke-width="10" vectornator:layerName="Line 1"/>
<path d="M394.292 159.185L392.485 864.815" fill="none" opacity="1" stroke="#e5b7fb" stroke-linecap="round" stroke-linejoin="round" stroke-width="10" vectornator:layerName="Line 2"/>
<path d="M427.254 159.185L425.447 864.815" fill="none" opacity="1" stroke="#e5b7fb" stroke-linecap="round" stroke-linejoin="round" stroke-width="10" vectornator:layerName="Line 3"/>
<path d="M454.75 159.185L452.944 864.815" fill="none" opacity="1" stroke="#e5b7fb" stroke-linecap="round" stroke-linejoin="round" stroke-width="10" vectornator:layerName="Line 4"/>
</g>
</svg>
