<?xml version="1.0" encoding="utf-8"?>
<!-- Generator: Adobe Illustrator 26.5.0, SVG Export Plug-In . SVG Version: 6.00 Build 0)  -->
<svg version="1.1" id="Layer_1" xmlns="http://www.w3.org/2000/svg" xmlns:xlink="http://www.w3.org/1999/xlink" x="0px" y="0px"
	 viewBox="0 0 595.3 600.1" style="enable-background:new 0 0 595.3 600.1;" xml:space="preserve">
<style type="text/css">
	.st0{display:none;fill:#FFFFFF;}
	.st1{fill:#FFFFFF;}
</style>
<rect x="-0.1" class="st0" width="595.3" height="600.1"/>
<g>
	<g>
		<path class="st1" d="M310.2,318.6c0-3.4-2.8-6.2-6.2-6.2h-4.6h-4.3h-0.8c-5.4,0-9.8-4.4-9.8-9.8c0-4.8,3.5-8.8,8.1-9.6v-0.2h1.7
			H322v-17.2h-48.8v48.8h32.8C308.5,323.6,310.2,321.3,310.2,318.6z"/>
		<path class="st1" d="M294.3,296.4c-3.4,0-6.2,2.8-6.2,6.2s2.8,6.2,6.2,6.2h0.8h4.3h4.6c5.4,0,9.8,4.4,9.8,9.8
			c0,2.2-0.7,4.2-1.9,5.8H322v-28H294.3z"/>
	</g>
</g>
</svg>
