<?xml version="1.0" encoding="utf-8"?>
<!-- Generator: Adobe Illustrator 26.5.0, SVG Export Plug-In . SVG Version: 6.00 Build 0)  -->
<svg version="1.1" id="Layer_1" xmlns="http://www.w3.org/2000/svg" xmlns:xlink="http://www.w3.org/1999/xlink" x="0px" y="0px"
	 viewBox="0 0 1785.84 1800.27" style="enable-background:new 0 0 1785.84 1800.27;" xml:space="preserve" width="1785.84" height="1800.27">
<style type="text/css">
	.st0{display:none;fill:#FFFFFF;}
	.st1{fill:#252E4D;}
</style>
<rect x="-0.39" class="st0" width="1785.84" height="1800.27"/>
<g>
	<g>
		<path class="st1" d="M930.63,955.83c0-10.23-8.34-18.57-18.57-18.57h-13.95h-12.81h-2.52c-16.2,0-29.37-13.17-29.37-29.37
			c0-14.43,10.47-26.43,24.21-28.89v-0.48h5.16h83.28v-51.54h-146.28v146.28h98.43C925.41,970.71,930.63,963.91,930.63,955.83z"/>
		<path class="st1" d="M882.78,889.32c-10.23,0-18.57,8.34-18.57,18.57s8.34,18.57,18.57,18.57h2.52h12.81h13.95
			c16.2,0,29.37,13.17,29.37,29.37c0,6.54-2.16,12.57-5.79,17.43h30.42v-83.94H882.78z"/>
	</g>
</g>
</svg>
