<?xml version="1.0" encoding="UTF-8" standalone="no"?>
<!DOCTYPE svg PUBLIC "-//W3C//DTD SVG 1.1//EN" "http://www.w3.org/Graphics/SVG/1.1/DTD/svg11.dtd">
<!-- Created with Vectornator (http://vectornator.io/) -->
<svg height="100%" stroke-miterlimit="10" style="fill-rule:nonzero;clip-rule:evenodd;stroke-linecap:round;stroke-linejoin:round;" version="1.1" viewBox="0 0 1024 1024" width="100%" xml:space="preserve" xmlns="http://www.w3.org/2000/svg" xmlns:vectornator="http://vectornator.io" xmlns:xlink="http://www.w3.org/1999/xlink">
<defs/>
<clipPath id="ArtboardFrame">
<rect height="1024" width="1024" x="0" y="0"/>
</clipPath>
<g clip-path="url(#ArtboardFrame)" id="Layer-1" vectornator:layerName="Layer 1">
<path d="M0 0L1024 0L1024 1024L0 1024L0 0Z" fill="#44f6d6" fill-rule="nonzero" opacity="1" stroke="#44f6d6" stroke-linecap="butt" stroke-linejoin="round" stroke-width="10" vectornator:layerName="Rectangle 2"/>
<path d="M206.155 249.617L511.607 250.798C511.607 250.798 535.721 174.069 206.155 249.617Z" fill="#ffffff" fill-rule="nonzero" opacity="1" stroke="#ffffff" stroke-linecap="round" stroke-linejoin="round" stroke-width="10" vectornator:layerName="Curve 1"/>
<path d="M822.898 249.617L517.447 250.798C517.447 250.798 493.332 174.069 822.898 249.617Z" fill="#ffffff" fill-rule="nonzero" opacity="1" stroke="#ffffff" stroke-linecap="round" stroke-linejoin="round" stroke-width="10" vectornator:layerName="Curve 3"/>
<path d="M172.85 250.798L851.15 250.798L851.15 773.202L172.85 773.202L172.85 250.798Z" fill="#2b2b45" fill-rule="nonzero" opacity="1" stroke="#2b2b45" stroke-linecap="butt" stroke-linejoin="round" stroke-width="10" vectornator:layerName="Rectangle 3"/>
<path d="M201.102 250.798L822.898 250.798L822.898 752.178L201.102 752.178L201.102 250.798Z" fill="#ffffff" fill-rule="nonzero" opacity="1" stroke="#ffffff" stroke-linecap="butt" stroke-linejoin="round" stroke-width="10" vectornator:layerName="Rectangle 4"/>
<path d="M549.809 317.681L790.143 317.681L790.143 333.947L549.809 333.947L549.809 317.681ZM549.809 421.947L666.446 421.947L666.446 436.559L549.809 436.559L549.809 421.947ZM549.809 353.081L790.143 353.081L790.143 369.346L549.809 369.346L549.809 353.081ZM549.809 386.34L790.143 386.34L790.143 402.606L549.809 402.606L549.809 386.34Z" fill="#e1e1e5" fill-rule="nonzero" opacity="1" stroke="#e1e1e5" stroke-linecap="butt" stroke-linejoin="round" stroke-width="10" vectornator:layerName="Curve 6"/>
<path d="M549.809 422.011L790.143 422.011L790.143 438.276L549.809 438.276L549.809 422.011ZM549.809 526.277L666.446 526.277L666.446 540.889L549.809 540.889L549.809 526.277ZM549.809 457.411L790.143 457.411L790.143 473.676L549.809 473.676L549.809 457.411ZM549.809 490.67L790.143 490.67L790.143 506.936L549.809 506.936L549.809 490.67Z" fill="#e1e1e5" fill-rule="nonzero" opacity="1" stroke="#e1e1e5" stroke-linecap="butt" stroke-linejoin="round" stroke-width="10" vectornator:layerName="Curve 7"/>
<path d="M514.053 242.549L516.474 752.181L517.054 752.178L514.632 242.547L514.053 242.549Z" fill="#e1e1e5" fill-rule="nonzero" opacity="1" stroke="#e1e1e5" stroke-linecap="butt" stroke-linejoin="round" stroke-width="10" vectornator:layerName="Rectangle 10"/>
<path d="M238.91 317.681L479.245 317.681L479.245 333.947L238.91 333.947L238.91 317.681ZM238.91 421.947L355.547 421.947L355.547 436.559L238.91 436.559L238.91 421.947ZM238.91 353.081L479.245 353.081L479.245 369.346L238.91 369.346L238.91 353.081ZM238.91 386.34L479.245 386.34L479.245 402.606L238.91 402.606L238.91 386.34Z" fill="#e1e1e5" fill-rule="nonzero" opacity="1" stroke="#e1e1e5" stroke-linecap="butt" stroke-linejoin="round" stroke-width="10" vectornator:layerName="Curve 4"/>
<path d="M238.91 497.364L479.245 497.364L479.245 513.629L238.91 513.629L238.91 497.364ZM238.91 601.63L355.547 601.63L355.547 616.242L238.91 616.242L238.91 601.63ZM238.91 532.763L479.245 532.763L479.245 549.029L238.91 549.029L238.91 532.763ZM238.91 566.023L479.245 566.023L479.245 582.288L238.91 582.288L238.91 566.023Z" fill="#e1e1e5" fill-rule="nonzero" opacity="1" stroke="#e1e1e5" stroke-linecap="butt" stroke-linejoin="round" stroke-width="10" vectornator:layerName="Curve 5"/>
<path d="M718.383 712.245C718.383 686.865 738.917 666.29 764.248 666.29C789.578 666.29 810.112 686.865 810.112 712.245C810.112 737.625 789.578 758.2 764.248 758.2C738.917 758.2 718.383 737.625 718.383 712.245ZM743.821 755.865L718.383 798.27M750.512 758.2L737.13 805.803M730.685 779.631L740.121 783.75L731.519 803.452L722.084 799.333L730.685 779.631ZM773.895 760.082L798.713 815.236M780.559 757.001L818.357 807.448M788.537 790.145L795.01 787.836L798.745 786.503L812.384 809.698L802.176 813.34L788.537 790.145Z" fill="#2b2b45" fill-rule="nonzero" opacity="1" stroke="#ce2e59" stroke-linecap="square" stroke-linejoin="round" stroke-width="10" vectornator:layerName="Curve 8"/>
<path d="M739.922 776.238C739.922 775.342 739.922 774.447 739.922 773.551C739.922 773.533 739.904 772.845 739.993 772.93C740.384 773.302 739.335 775.391 739.193 775.768C739.075 776.081 738.979 776.297 738.901 776.606C738.861 776.765 738.74 777.236 738.74 777.072C738.74 774.095 743.089 770.825 743.089 768.409C743.089 768.387 743.089 768.454 743.089 768.476C743.089 769.066 742.967 769.519 742.781 770.084C742.334 771.444 741.619 772.762 740.917 773.993C740.686 774.399 740.471 774.883 740.191 775.253C740.048 775.443 739.863 776.124 739.863 775.887C739.863 772.862 740.148 770.303 741.183 767.445C741.28 767.177 742.891 764.413 742.977 764.586C743.181 764.996 742.206 766.456 742.046 766.776C741.031 768.802 740.219 770.879 739.425 772.986C737.873 777.105 738.015 781.736 736.311 785.766C735.723 787.157 734.934 788.847 734.021 790.053C733.447 790.811 732.509 791.572 732.264 792.541C731.663 794.912 731.599 799.626 728.327 799.626" fill="none" opacity="1" stroke="#ce2e59" stroke-linecap="round" stroke-linejoin="round" stroke-width="10" vectornator:layerName="Curve 9"/>
<path d="M783.003 766.112C783.003 769.175 785.436 772.121 786.873 774.708C788.152 777.011 789.882 778.956 791.188 781.188C794.172 786.284 796.626 791.604 799.215 796.887C799.587 797.646 800.122 798.304 800.498 799.059C800.763 799.591 804.336 805.762 804.561 805.762" fill="none" opacity="1" stroke="#ce2e59" stroke-linecap="round" stroke-linejoin="round" stroke-width="10" vectornator:layerName="Curve 10"/>
<path d="M749.109 709.941C750.957 712.636 753.365 714.992 755.516 717.503C757.249 719.526 759.436 721.266 761.091 723.335C761.275 723.565 762.43 725.418 762.88 725.431C763.253 725.442 762.951 724.754 763.11 724.453C764.094 722.585 764.776 720.646 765.752 718.765C766.252 717.801 766.846 716.877 767.348 715.914C768.623 713.468 769.655 710.927 770.886 708.463C773.572 703.088 776.54 697.803 779.367 692.496C779.987 691.333 780.498 690.126 781.102 688.956C781.758 687.684 782.441 686.422 783.146 685.171C783.404 684.714 786.986 678.384 787.631 678.384" fill="none" opacity="1" stroke="#ce2e59" stroke-linecap="round" stroke-linejoin="round" stroke-width="10" vectornator:layerName="Curve 11"/>
<path d="M382.021 245.957C394.46 245.957 406.898 245.957 419.336 245.957C422.413 245.957 427.273 245.4 430.151 246.839C430.647 247.087 430.984 249.08 431.181 249.652C431.31 250.026 431.462 251.203 431.462 250.807C431.462 248.334 424.994 244.976 422.92 244.291C413.266 241.101 402.267 243.185 392.325 243.185C378.903 243.185 365.403 243.013 351.938 243.013C347.666 243.013 343.393 243.013 339.12 243.013C337.62 243.013 335.52 242.638 334.077 243.013C330.699 243.89 327.16 243.903 323.794 244.738C321.437 245.324 318.689 244.479 316.33 245.064C313.208 245.84 309.509 244.289 306.387 245.064C302.821 245.95 298.304 245.361 294.585 245.361C286.404 245.361 278.222 245.361 270.041 245.361" fill="none" opacity="1" stroke="#ffffff" stroke-linecap="round" stroke-linejoin="round" stroke-width="10" vectornator:layerName="Curve 12"/>
<path d="M283.437 247.199C273.147 247.199 262.955 247.042 252.693 247.042C247.602 247.042 241.015 246.69 236.573 248.878C235.628 249.344 233.733 249.019 232.644 249.019C229.433 249.019 224.672 248.807 221.943 250.15C221.276 250.479 219.525 250.15 218.775 250.15C214.616 250.15 209.408 249.167 206.877 251.778C206.416 252.254 204.014 252.284 204.014 253.272" fill="none" opacity="1" stroke="#ffffff" stroke-linecap="round" stroke-linejoin="round" stroke-width="10" vectornator:layerName="Curve 13"/>
<path d="M429.73 245.765C435.704 245.765 441.678 245.765 447.653 245.765C450.11 245.765 452.997 245.313 455.387 245.765C457.66 246.195 460.358 245.669 462.61 246.232C467.133 247.363 472.371 247.476 477.12 247.476C481.691 247.476 485.925 247.758 490.446 247.758C491.104 247.758 492.867 248.069 493.48 247.758C496.375 246.288 500.617 244.804 503.937 244.804" fill="none" opacity="1" stroke="#ffffff" stroke-linecap="round" stroke-linejoin="round" stroke-width="10" vectornator:layerName="Curve 14"/>
<path d="M524.862 246.021C526.47 246.021 528.004 246.702 529.584 246.999C534.931 248.005 542.462 249.175 548.023 248.237C550.244 247.862 552.276 246.427 554.492 246.053C556.97 245.635 560.203 245.374 562.537 244.559C565.819 243.414 570.19 245.689 572.641 246.451C575.909 247.469 581.06 246.451 584.445 246.451C591.163 246.451 597.664 247.385 604.354 247.385C615.016 247.385 624.943 246.296 635.513 246.296C638.347 246.296 644.671 245.469 647.074 246.296C648.902 246.925 651.113 246.694 653.014 247.089C656.264 247.762 662.476 249.275 665.939 248.067C670.153 246.596 675.063 248.021 679.424 247.106C682.179 246.527 685.643 247.773 688.301 246.933C688.9 246.744 690.006 246.383 690.617 246.383" fill="none" opacity="1" stroke="#ffffff" stroke-linecap="round" stroke-linejoin="round" stroke-width="10" vectornator:layerName="Curve 15"/>
<path d="M696.084 245.339C701.849 245.339 707.614 245.339 713.379 245.339C715.069 245.339 718.289 245.91 719.724 245.182C721.766 244.145 724.846 244.836 727.092 244.295C729.602 243.69 732.645 243.995 735.321 243.995C741.346 243.995 747.453 243.572 752.826 245.422C756.571 246.712 761.447 245.376 765.303 246.341C771.789 247.962 782.049 245.986 787.778 248.851C788.86 249.391 791.684 248.851 792.904 248.851C797.237 248.851 801.569 248.851 805.901 248.851C807.566 248.851 810.746 248.255 811.948 249.458" fill="none" opacity="1" stroke="#ffffff" stroke-linecap="round" stroke-linejoin="round" stroke-width="10" vectornator:layerName="Curve 16"/>
<path d="M818.054 248.443C817.935 248.443 816.703 248.483 816.703 248.193" fill="none" opacity="1" stroke="#ffffff" stroke-linecap="round" stroke-linejoin="round" stroke-width="10" vectornator:layerName="Curve 17"/>
</g>
</svg>
