<?xml version="1.0" encoding="UTF-8" standalone="no"?>
<!DOCTYPE svg PUBLIC "-//W3C//DTD SVG 1.1//EN" "http://www.w3.org/Graphics/SVG/1.1/DTD/svg11.dtd">
<!-- Created with Vectornator (http://vectornator.io/) -->
<svg height="100%" stroke-miterlimit="10" style="fill-rule:nonzero;clip-rule:evenodd;stroke-linecap:round;stroke-linejoin:round;" version="1.1" viewBox="0 0 1024 1024" width="100%" xml:space="preserve" xmlns="http://www.w3.org/2000/svg" xmlns:vectornator="http://vectornator.io" xmlns:xlink="http://www.w3.org/1999/xlink">
<defs/>
<clipPath id="ArtboardFrame">
<rect height="1024" width="1024" x="0" y="0"/>
</clipPath>
<g clip-path="url(#ArtboardFrame)" id="Layer-1" vectornator:layerName="Layer 1">
<path d="M-0.797997 0L1023.2 0L1023.2 1024L-0.797997 1024L-0.797997 0Z" fill="#fecb62" fill-rule="nonzero" opacity="1" stroke="#fecb62" stroke-linecap="butt" stroke-linejoin="round" stroke-width="10" vectornator:layerName="Rectangle 1"/>
<path d="M734.973 587.355L707.715 588.162" fill="none" opacity="1" stroke="#ce2e59" stroke-linecap="round" stroke-linejoin="round" stroke-width="10" vectornator:layerName="Line 4"/>
<path d="M720.692 392.103L720.231 566.658" fill="none" opacity="1" stroke="#ce2e59" stroke-linecap="round" stroke-linejoin="round" stroke-width="10" vectornator:layerName="Line 1"/>
<path d="M719.844 566.658L705.102 587.355" fill="none" opacity="1" stroke="#ce2e59" stroke-linecap="round" stroke-linejoin="round" stroke-width="10" vectornator:layerName="Line 2"/>
<path d="M720.692 567.771L736.884 587.355" fill="none" opacity="1" stroke="#ce2e59" stroke-linecap="round" stroke-linejoin="round" stroke-width="10" vectornator:layerName="Line 3"/>
<path d="M255.958 375.199L443.013 298.652L502.523 274.299M768.034 385.021L502.523 274.299M768.042 384.676L503.076 483.456M255.958 375.199L503.076 483.456M414.127 389.968C448.964 389.968 488.613 387.163 522.31 396.93C532.268 399.816 538.687 403.146 544.875 410.814C547.62 414.217 552.932 418.143 551.218 422.046C549.436 426.101 542.592 427.333 537.71 427.128C531.453 426.864 526.073 422.989 520.336 420.744C499.856 412.733 480.598 403.463 461.585 392.997C457.713 390.866 454.181 388.15 449.983 386.584C445.782 385.017 438.008 379.829 436.704 383.716C435.387 387.638 444.93 387.392 449.219 388.86C455.535 391.023 461.974 392.914 468.475 394.593C485.381 398.956 502.783 402.104 519.651 406.576C524.321 407.814 537.257 408.261 533.422 410.936C528.166 414.601 520.073 410.936 513.399 410.936C497.231 410.936 481.062 410.936 464.893 410.936C459.566 410.936 454.238 410.936 448.911 410.936C443.693 410.936 428.298 409.497 433.259 410.936C439.509 412.751 446.387 411.603 452.937 412.105C462.843 412.866 472.724 413.881 482.621 414.727C499.743 416.193 517.118 418.214 534.3 418.905C540.089 419.137 545.894 418.713 551.685 418.905C556.908 419.078 565.025 424.188 567.314 420.002C569.602 415.822 561.248 412.021 556.693 409.747C551.27 407.039 544.702 406.785 538.612 405.671C522.861 402.793 506.174 406.716 490.915 403.74C485.025 402.592 479.765 399.649 474.225 397.53C448.569 387.717 423.008 378.274 397.95 367.231C392.416 364.791 387.085 361.998 381.603 359.466C377.141 357.404 370.981 349.766 368.119 353.449C365.086 357.349 373.645 361.618 377.153 365.187C380.702 368.797 385.169 371.597 389.143 374.833C405.327 388.008 421.471 401.104 438.779 413.122C443.029 416.072 447.554 418.704 451.717 421.751C455.336 424.4 464.637 426.68 462.098 430.187C459.383 433.937 452.068 429.221 447.301 427.85C441.835 426.276 436.939 423.422 431.65 421.426C414.596 414.986 398.047 408.574 381.9 400.346C377.645 398.176 368.629 397.745 369.408 393.434C370.17 389.214 378.771 390.977 383.564 391.127C388.911 391.292 393.984 393.281 399.194 394.359C423.756 399.44 449.8 404.879 475.195 403.608C479.84 403.375 484.669 403.597 489.066 402.245C510.271 395.731 531.35 369.763 544.738 354.821C547.686 351.53 549.189 346.824 553.306 344.758C557.451 342.677 562.746 343.632 567.497 343.396C576.874 342.928 584.752 342.516 593.051 347.451C597.551 350.127 607.511 362.024 610.825 365.788M425.809 318.656C454.911 318.656 484.008 319.694 513.08 320.851C517.536 321.03 522.002 321.334 526.394 322.021C549.485 325.635 571.272 334.045 594.534 336.636M424.132 334.767C466.625 334.767 509.13 335.698 551.571 337.552C577.439 338.681 603.505 349.16 628.462 354.719M414.001 352.218C453.458 352.218 492.65 358.206 531.801 362.575C551.903 364.819 569.731 372.253 588.934 377.222M366.715 364.72C369.809 361.73 375.828 364.069 380.393 364.069C393.734 364.069 405.532 365.925 418.212 369.69C427.742 372.521 437.153 372.482 446.834 373.755C481.919 378.373 517.636 377.151 553.466 377.151C563.73 377.151 583.398 378.013 591.397 385.14C594.978 388.33 597.74 392.966 597.74 397.398C597.74 398.835 597.74 400.271 597.74 401.708C597.74 402.379 598.295 404.174 597.74 403.72C592.543 399.47 589.347 388.272 585.967 382.772C578.31 370.313 571.817 357.977 565.307 345.103C564.636 343.778 553.76 325.557 550.122 328.912C546.284 332.453 542.885 341.749 540.391 346.181C531.058 362.777 524.512 381.493 521.066 399.827C519.535 407.976 518.818 417.027 518.818 425.35C518.818 427.839 518.818 430.33 518.818 432.819C518.818 433.985 518.818 437.481 518.818 436.317C518.818 427.154 515.468 419.069 511.918 410.591C506.534 397.742 503.146 384.109 497.646 371.256C494.891 364.816 490.987 358.216 487.835 351.883C486.842 349.888 485.822 347.902 484.913 345.876C484.497 344.945 483.093 342.806 482.588 343.701C480.762 346.926 482.588 356.507 482.588 360.756C482.588 376.598 481.118 393.097 482.588 408.873C483.052 413.872 483.739 418.369 483.739 423.407C483.739 425.084 483.739 426.761 483.739 428.438C483.739 429.381 484.746 431.551 483.739 431.265C479.559 430.076 476.059 424.75 472.913 422.269C459.699 411.849 446.362 400.786 434.491 389.073C429.597 384.245 425.304 378.729 419.17 375.129C418.568 374.775 417.985 373.203 417.641 373.766C414.292 379.243 418.99 401.72 420.698 407.827C421.005 408.924 424.218 419.37 423.276 420.277C422.52 421.007 414.728 414.853 413.91 414.332C405.701 409.105 395.285 403.881 386.006 400.579C376.341 397.139 364.531 393.656 356.094 388.007C351.092 384.655 342.728 380.042 337.032 378.451C331.213 376.829 321.176 375.841 317.227 372.323C314.167 369.597 293.431 372.694 291.593 371.002C290.744 370.22 291.144 368.511 289.415 368.511C288.452 368.511 291.338 368.511 292.3 368.511C293.802 368.511 295.305 368.511 296.806 368.511C301.464 368.511 306.796 367.833 311.364 368.511C317.429 369.411 325.618 371.609 330.803 373.919C337.62 376.956 347.978 373.931 355.444 376.003C362.157 377.864 372.619 375.299 378.877 378.086C382.032 379.492 385.955 378.718 389.463 379.499C411.489 384.405 432.341 383.95 455.755 383.95C470.004 383.95 483.487 384.872 494.326 375.148M363.858 353.034C363.935 352.918 363.938 352.694 364.089 352.684C381.27 351.559 398.491 350.91 415.659 349.638C423.673 349.044 433.153 345.689 440.885 343.609C442.337 343.218 447.487 343.397 448.684 342.395C449.047 342.091 447.048 342.086 442.927 342.086C440.494 342.086 438.061 342.086 435.627 342.086C431.124 342.086 426.546 341.358 422.117 342.086C398.319 345.992 375.912 356.61 354.233 365.671C347.864 368.332 341.16 370.319 334.944 373.083C334.35 373.347 326.378 376.353 326.792 376.789C328.132 378.196 332.876 374.443 337.461 371.864C348.531 365.638 359.164 358.606 369.83 351.77C375.373 348.217 380.72 344.597 386.513 341.371C388.248 340.406 390.083 339.635 391.738 338.654C391.925 338.543 394.806 337.148 394.406 336.976C392.89 336.322 386.163 336.976 385.404 336.976C373.162 336.976 358.253 349.318 348.454 355.581C345.36 357.559 342.051 359.345 338.923 361.335C337.969 361.943 337.305 364.193 336.406 363.524C335.874 363.126 337.188 362.471 337.752 362.109C339.421 361.038 341.387 360.378 343.285 359.672C351.793 356.505 360.244 352.804 368.574 349.272C382.822 343.232 397.791 338.407 412.049 332.431C416.991 330.358 422.998 326.897 428.659 326.897C429.781 326.897 426.417 326.897 425.295 326.897C423.22 326.897 421.144 326.897 419.067 326.897C413.824 326.897 415.154 326.59 409.594 328.05C397.68 331.179 387.534 336.279 376.534 341.166C373.414 342.553 370.542 344.067 367.57 345.617C366.846 345.994 366.068 346.299 365.395 346.746C365.013 346.999 363.746 347.297 364.195 347.44C368.004 348.651 373.551 346.068 376.786 344.718C385.548 341.06 394.718 336.938 402.575 331.851C406.739 329.154 403.945 330.453 408.068 328.399C411.48 326.7 414.69 323.958 418.131 322.402C418.339 322.307 418.827 321.276 418.502 321.127C414.055 319.114 408.247 322.835 404.941 324.714C395.354 330.16 387.936 338.19 378.519 343.764C369.536 349.08 357.054 354.324 346.121 355.402C339.494 356.055 331.874 354.595 325.306 355.801C318.142 357.118 313.078 361.752 306.856 364.482C304.661 365.445 302.114 365.797 299.899 366.769C298.027 367.591 287.405 366.8 286.618 367.499C284.506 369.381 282.364 372.359 279.067 372.359C278.544 372.359 280.118 372.514 280.586 372.723C281.374 373.074 281.819 373.315 282.751 373.487C284.804 373.867 286.929 374.176 288.951 374.686C295.337 376.3 301.791 376.484 308.151 377.658C319.128 379.684 328.949 383.267 338.57 387.553C343.203 389.616 350.45 395.295 355.892 395.295C357.112 395.295 353.447 395.43 352.238 395.295C351.569 395.219 350.934 394.986 350.275 394.855C347.706 394.347 345.603 393.452 343.01 393.032C336.623 391.997 318.777 389.526 316.074 384.706C315.121 383.008 313.526 381.709 311.162 381.049C310.279 380.803 307.563 380.38 308.488 380.38C311.253 380.38 313.819 381.609 316.409 382.229C328.719 385.171 338.838 389.713 350.013 394.69C360.704 399.453 373.149 400.41 383.525 405.824C390.45 409.436 396.522 414.359 403.292 418.38C406.365 420.206 409.561 420.21 412.43 421.487C413.092 421.782 414.622 421.817 414.622 421.817C414.622 421.817 410.957 419.616 408.988 418.735C405.746 417.284 401.953 416.227 398.409 415.593C387.937 413.72 377.378 411.336 367.251 409.615C361.959 408.716 358.306 407.721 353.903 405.759C353.258 405.472 350.116 403.037 350.623 402.562C350.759 402.434 370.942 402.562 373.125 402.562C393.308 402.562 421.202 408.194 438.066 395.324C441.144 392.976 442.491 387.458 443.313 384.126C444.119 380.862 444.746 375.515 443.801 372.174C442.846 368.793 432.501 370.229 430.167 370.401C418.874 371.234 407.223 379.748 398.011 385.201C397.154 385.708 386.062 391.904 388.761 393.366C392.464 395.373 399.67 395.292 403.846 395.784C406.472 396.092 429.856 399.607 428.463 395.889C425.808 388.805 410.122 381.18 402.294 380.22C397.719 379.66 394.284 379.565 394.226 379.746C390.783 390.739 407.049 397.237 415.923 400.799C419.353 402.175 422.457 404.148 425.896 405.469C426.149 405.567 430.431 407.428 429.326 406.358C418.518 395.889 398.838 392.641 384.59 387.828C380.393 386.409 375.951 385.814 371.697 384.56C371.535 384.514 365.9 382.421 365.883 382.803C365.852 383.51 371.235 386.552 371.724 386.868C377.773 390.775 385.21 392.858 391.755 396.024C394.624 397.412 397.616 398.631 400.539 399.929C401.589 400.396 402.965 401.17 404.132 401.528C404.366 401.599 404.968 401.731 404.873 401.528C402.1 395.587 386.476 390.192 379.758 388.691C379.537 388.642 371.554 387.528 371.349 388.183C369.429 394.308 374.915 398.78 379.348 402.567C382.969 405.66 386.604 408.742 390.292 411.772C400.715 420.333 411.56 427.611 422.7 435.218C427.804 438.702 433.042 441.857 438.492 444.878C438.929 445.12 442.723 447.416 443.448 446.771C444.774 445.589 439.874 441.523 439.832 441.481C435.438 437.11 429.762 433.624 424.752 429.868C423.24 428.735 421.857 427.34 420.278 426.282C419.755 425.932 418.133 425.528 418.702 425.244C420.623 424.28 425.518 426.189 427.073 426.691C434.727 429.164 442.058 432.23 449.682 434.693C452.018 435.448 454.133 436.406 456.319 437.381C456.395 437.414 459.659 438.552 459.672 438.509C461.048 433.587 447.5 419.12 444.328 415.068C441.588 411.568 439.228 408.356 435.84 405.338C435.374 404.923 434.577 403.752 434.265 404.27C433.668 405.263 445.293 418.61 446.285 419.814C455.053 430.452 464.674 440.212 474.147 450.272C474.815 450.982 484.463 462.49 484.742 462.51C485.863 462.585 484.705 460.463 484.288 459.532C482.898 456.431 480.688 453.721 478.704 450.887C473.643 443.651 462.604 437.671 454.19 433.914C453.337 433.534 452.408 433.309 451.538 432.965C451.253 432.852 443.595 430.236 443.51 430.543C441.936 436.219 457.761 450.326 462.234 455.067C464.737 457.72 467.539 460.192 470.284 462.639C471.16 463.418 471.857 464.04 472.701 464.792C473.064 465.116 473.81 466.203 473.81 465.746C473.81 457.801 472.804 449.175 474.377 441.391C475.658 435.051 479.791 428.903 479.791 422.536C479.791 421.478 480.513 406.893 480.728 406.793C481.62 406.374 481.712 407.626 481.866 407.992C483.816 412.59 485.23 417.372 486.985 422.052C491.278 433.503 493.432 445.768 496.347 457.544C496.909 459.817 497.387 462.184 498.141 464.342C498.901 466.517 506.001 475.052 506.001 470.626M505.675 470.571C505.675 470.576 505.675 470.59 505.675 470.586C505.675 463.756 505.675 456.927 505.675 450.098C505.675 439.312 504.997 429.502 503.628 418.939C502.314 408.792 500.747 399.594 500.747 389.057C500.747 379.589 500.747 370.122 500.747 360.656C500.747 357.042 501.59 352.343 500.747 348.749C497.679 335.649 491.145 323.825 491.145 310.349C491.145 303.621 491.315 297.644 497.024 292.787C497.47 292.409 499.001 292.846 499.435 292.453C500.076 291.872 498.868 288.626 500.506 288.626M488.391 293.986C484.076 293.986 480.035 295.935 475.952 297.182C470.609 298.815 464.48 301.772 459.358 304.04C456.393 305.353 453.223 305.97 450.159 307.047C449.278 307.357 448.405 307.792 447.608 308.141C447.253 308.296 446.086 308.471 446.48 308.471C454.984 308.471 465.493 303.489 473.586 301.074C476.722 300.138 479.819 299.203 482.948 298.261C483.973 297.953 485.088 298.143 486.009 297.857C486.516 297.699 487.73 297.031 487.568 297.487C486.8 299.643 482.502 302.299 480.767 303.841C474.94 309.025 469.479 314.497 463.646 319.684C460.63 322.367 458.132 325.471 455.153 328.1C454.985 328.248 454.459 329.747 454.778 329.818C462.641 331.604 473.651 323.176 479.573 319.65C481.466 318.522 483.58 316.914 485.168 315.479C485.291 315.368 485.454 315.006 485.538 315.143C487.373 318.115 482.574 326.759 481.536 329.518C477.081 341.356 473.992 352.579 471.484 364.842C470.998 367.222 471.822 375.221 470.004 376.973C469.519 377.441 469.661 370.475 469.661 369.787C469.661 363.35 469.499 357.573 471.12 351.246C473.335 342.598 474.456 334.133 475.61 325.344C476.051 321.98 477.367 316.5 476.254 313.026C476.111 312.58 475.584 313.774 475.458 314.225C475.016 315.818 474.341 317.355 473.861 318.94C472.814 322.396 472.026 326.036 471.455 329.583C469.503 341.731 469.129 353.647 469.129 365.916C469.129 366.416 469.129 364.913 469.129 364.412C469.129 363.624 469.241 362.831 469.129 362.05C468.833 359.978 468.43 357.916 467.907 355.88C466.608 350.82 463.908 345.749 461.096 341.257C460.791 340.767 458.246 336.322 457.659 336.836C456.72 337.659 457.659 343.014 457.659 344.288C457.659 352.405 457.061 360.618 458.674 368.582C459.313 371.74 460.011 374.935 461.152 377.982C461.378 378.589 461.691 379.672 462.01 380.241C462.185 380.552 462.38 381.577 462.38 381.229C462.38 373.108 457.674 364.692 451.84 358.513C451.388 358.035 446.891 353.333 445.355 354.752C442.031 357.817 442.158 374.216 442.158 378.593C442.158 379.257 442.777 383.144 442.158 383.722C441.996 383.873 441.688 383.722 441.452 383.722C440.092 383.722 436.816 374.944 436.267 373.988C434.944 371.682 427.011 362.277 427.011 360.552C427.011 360.051 427.011 361.55 427.011 362.05C427.011 362.849 426.88 363.657 427.011 364.447C427.287 366.112 428.156 368.609 429.215 370.046C429.45 370.365 430.758 370.939 430.324 371.365C430.005 371.678 429.499 370.929 429.164 370.631C426.229 368.015 423.593 365.135 420.906 362.324C420.263 361.651 417.247 359.207 417.369 359.207M514.168 292.298C513.944 292.596 513.501 292.833 513.496 293.191C513.277 306.073 513.496 318.958 513.496 331.842C513.496 354.342 513.496 376.844 513.496 399.345C513.496 407.369 513.496 415.391 513.496 423.415C513.496 424.576 513.639 430.353 512.671 431.202C510.045 433.507 501.003 427.434 499.503 426.592C488.43 420.38 485.483 409.994 476.58 402.063C475.846 401.41 478.249 403.162 479.03 403.771C481.015 405.318 481.732 406.31 483.425 408.196C487.206 412.412 491.647 416.149 495.685 420.174C498.218 422.696 500.882 425.098 503.124 427.856C509.071 435.162 513.953 442.783 519.449 450.252C521.801 453.448 526.243 454.131 524.584 458.808C521.412 467.75 520.014 462.099 518.502 455.392C516.887 448.227 515.448 440.96 513.316 433.914C511.805 428.921 508.723 424.596 506.595 419.849C506.328 419.256 504.118 415.943 504.559 415.503C508.305 411.777 517.757 422.523 519.074 424.684C523.542 432.015 522.696 441.235 524.019 449.223C524.306 450.958 531.256 461.349 532.701 462.519C534.448 463.934 540.217 459.058 541.878 458.463C546.503 456.809 550.441 454.361 555.013 453.328C560.388 452.114 565.846 451.507 570.879 448.858C581.081 443.49 591.123 436.185 602.077 432.266C607.762 430.231 613.814 429.439 619.343 427.461C637.42 420.993 655.664 414.912 674.193 410.729C677.563 409.967 680.745 407.906 683.723 407.068C687.943 405.879 691.876 403.435 695.506 401.793C697.519 400.883 698.845 397.771 701.041 396.778C702.701 396.026 713.003 392.72 713.003 392.357M743.937 383.117C729.571 383.117 716.364 388.574 701.684 386.259C690.261 384.457 680.243 378.778 669.025 377.099C656.489 375.222 644.039 373.133 631.407 371.93C625.1 371.328 618.519 369.358 612.263 368.237C604.356 366.823 596.317 366.141 588.319 365.426C583.567 365 578.883 363.407 574.131 363.019C557.177 361.633 539.779 362.509 522.7 362.509M522.7 357.265C522.7 352.658 522.7 348.05 522.7 343.444C522.7 337.859 523.685 331.921 519.533 327.261C514.627 321.754 510.124 316.154 505.788 310.289C505.408 309.777 502.105 305.728 502.704 305.159C505.077 302.902 509.346 301.342 512.217 299.3C514.857 297.424 517.243 296.847 520.559 296.349C521.639 296.187 530.03 293.689 531.53 295.135C539.399 302.719 538.061 317.838 538.061 327.496C538.061 330.13 542.031 340.118 541.452 341.251C540.296 343.518 536.374 335.75 536.374 335.747C535.455 332.199 534.967 328.265 534.362 324.644C533.694 320.646 535.581 315.541 533.531 311.887C532.741 310.479 531.527 309.353 529.725 308.551C528.855 308.163 527.869 305.676 527.869 306.544C527.869 309.957 529.85 313.52 530.588 316.862C533.417 329.674 535.111 342.689 540.527 354.953C542.255 358.862 545.306 364.181 549.302 366.515C549.593 366.685 550.264 367.601 550.781 367.175C552.184 366.019 552.088 359.427 552.362 357.824C554.171 347.245 554.218 337.005 554.218 326.326C554.218 321.38 555.625 314.783 553.802 310.089C553.735 309.913 553.437 308.798 553.052 309.105C551.464 310.372 554.448 315.93 554.756 316.587C557.701 322.89 559.865 329.545 562.481 335.972C563.605 338.734 565.534 347.356 569.006 348.904C569.116 348.952 569.285 348.978 569.376 348.904C570.513 347.968 568.488 344.986 568.019 344.254C565.009 339.534 563.532 334.291 561.27 329.274C560.185 326.868 559.107 324.48 557.827 322.212C557.628 321.856 556.467 318.352 556.208 318.555C554.552 319.854 559.517 324.66 560.357 326.038C563.859 331.785 567.549 337.325 571.248 342.949C574.109 347.298 576.007 351.589 579.551 355.571C579.697 355.735 582.624 358.796 583.077 358.054C583.931 356.661 583.077 354.88 583.077 353.293C583.077 343.368 576.451 333.759 576.451 324.229C576.451 323.867 576.678 324.93 576.861 325.253C577.309 326.053 577.731 326.864 578.206 327.65C579.149 329.216 580.017 330.819 581.054 332.335C583.284 335.6 592.659 347.364 592.659 350.666C592.659 351.337 592.146 349.396 591.756 348.823C590.938 347.62 590.244 346.366 589.463 345.143C587.126 341.479 585.091 337.659 582.753 333.994C580.066 329.782 578.622 324.686 576.497 320.659C575.082 317.978 564.393 315.44 564.393 311.923M517.257 428.33C517.592 428.558 517.885 429.183 518.26 429.014C530.663 423.436 542.953 417.639 554.941 411.383C562.394 407.494 568.767 399.051 574.943 393.537C575.906 392.676 585.989 382.295 583.482 380.061C582.543 379.224 572.355 380.061 570.217 380.061C559.144 380.061 549.265 385.936 539.793 390.51C536.318 392.188 532.67 393.892 529.029 395.284C528.158 395.618 527.211 395.773 526.328 396.084C525.782 396.275 524.364 397.169 524.753 396.778C530.553 390.941 541.982 388.781 549.564 385.45C549.828 385.334 556.647 382.24 557.25 383.432C561.744 392.287 544.785 405.514 540.001 411.612C539.57 412.162 532.569 420.596 533.335 421.348C536.06 424.016 543.928 417.76 545.466 416.597C548.15 414.571 563.524 402.14 563.524 398.512C563.524 397.046 564.165 401.557 563.524 402.907C562.679 404.687 561.303 406.231 560.071 407.821C557.788 410.768 555.115 413.459 552.637 416.278C548.849 420.586 545.696 425.161 542.277 429.684C538.889 434.167 528.889 442.526 528.889 448.573C528.889 449.423 530.004 447.172 530.729 446.621C532.072 445.598 533.497 444.658 534.967 443.784C535.995 443.172 553.444 431.893 554.633 432.935C556.071 434.196 549.555 439.575 548.488 440.283C548.099 440.541 545.895 442.291 546.073 442.371C550.399 444.298 557.987 439.867 561.876 438.693C566.443 437.316 572.851 431.107 577.415 431.107C577.528 431.107 577.179 431.153 577.08 431.107C575.249 430.246 574.306 427.332 573.951 425.737C573.007 421.488 573.379 417.106 573.379 412.792C573.379 410.929 573.547 395.952 571.938 394.52C571.764 394.364 570.252 401.891 570.155 402.791C569.333 410.562 568.518 418.259 568.518 426.092C568.518 426.816 567.967 424.677 567.392 424.165M580.549 417.851C578.926 418.586 580.463 417.979 577.08 418.471C576.197 418.599 578.824 418.104 579.714 418.031C581.989 417.845 584.28 417.807 586.542 417.521C592.196 416.806 597.561 415.659 603.142 414.549C615.693 412.054 628.575 407.701 641.331 406.558C642.944 406.413 655.334 406.204 656.314 405.344C656.842 404.882 649.761 404.16 649.386 404.16C645.096 404.16 640.805 404.16 636.515 404.16C622.36 404.16 611.202 407.917 597.9 411.463C594.231 412.44 590.542 413.558 586.895 414.365C585.884 414.589 584.885 415.303 584.048 415.789C583.466 416.124 581.462 416.681 582.119 416.483C591.79 413.562 601.748 411.531 611.338 408.2C623.743 403.892 635.199 399.03 648.669 397.642C656.324 396.853 664.365 394.51 671.883 394.51C675.472 394.51 678.948 395.57 682.131 395.57C682.973 395.57 684.631 395.899 684.631 395.899C684.631 395.899 683.342 395.316 682.646 395.16C680.702 394.723 677.821 395.16 675.864 395.16C668.895 395.16 664.897 396.554 658.456 399.246C641.306 406.413 624.066 415.255 605.816 419.939C599.8 421.483 593.47 422.167 587.461 423.59C585.265 424.11 582.966 424.29 580.808 424.929C580.068 425.147 579.37 425.469 578.632 425.693C578.152 425.839 576.706 426.227 577.158 426.022C586.194 421.929 594.67 417.807 604.504 415.273C606.991 414.633 614.336 413.384 612.218 409.61C605.78 398.137 581.451 404.908 573.088 409.579C569.611 411.522 563.785 415.246 561.404 418.306C561.356 418.369 560.288 419.821 560.654 419.924C567.112 421.751 573.235 416.405 577.579 413.175C586.092 406.846 591.841 399.229 597.054 390.62C597.44 389.981 602.9 380.12 602.918 380.12C603.302 380.12 602.159 379.961 601.829 379.786C600.611 379.141 599.329 378.667 598.163 377.982C597.674 377.695 596.001 377.279 596.588 377.279C599.202 377.279 605.669 381.503 608.182 382.533C615.388 385.485 622.962 387.675 630.623 389.55C634.3 390.451 638.666 391.394 642.474 391.394C643.468 391.394 644.462 391.394 645.456 391.394C646.099 391.394 648.028 391.394 647.385 391.394C629.192 391.394 611.445 393.552 593.304 393.552C591.658 393.552 596.592 393.552 598.236 393.552C600.985 393.552 604.272 393.552 607.021 393.552C616.731 393.552 626.156 391.567 635.679 390.02C642.125 388.974 648.524 387.71 654.97 386.664C660.465 385.771 666.043 384.395 671.434 383.098C677.582 381.618 683.713 380.335 689.587 378.508C694.291 377.044 701.479 379.236 706.394 379.236C707.164 379.236 717.711 378.912 718.105 378.567C718.439 378.274 713.535 376.275 712.93 376.01C707.074 373.445 699.986 373.233 693.785 371.845C686.292 370.166 678.581 369.109 671.389 366.549C666.088 364.663 661.472 361.15 656.012 359.323C653.012 358.318 649.891 357.823 646.998 356.525M604.521 351.675C608.264 351.675 612.007 351.675 615.749 351.675C619.308 351.675 622.866 351.675 626.424 351.675C627.417 351.675 628.411 351.675 629.407 351.675C629.914 351.675 631.44 351.675 630.931 351.675C619.035 351.675 605.476 350.199 593.601 348.074C592.57 347.89 584.54 346.857 584.334 345.312C584.268 344.818 585.472 345.179 586.01 345.312C589.382 346.148 592.688 347.517 595.983 348.574C602.58 350.69 609.401 352.258 616.114 353.862C624.458 355.857 633.488 358.014 641.986 359.042C645.23 359.435 647.901 360.289 650.961 361.371C651.433 361.537 654.493 362.24 654.347 362.374C653.315 363.326 641.324 356.458 640.192 355.865C628.319 349.66 611.789 341.369 602.368 332.976C597.095 328.277 586.929 326.218 583.229 319.624C582.448 318.232 581.194 315.653 580.028 314.614C579.903 314.503 579.487 314.334 579.653 314.28C584.907 312.566 590.516 316.086 595.142 317.431C602.493 319.57 609.255 322.627 615.851 326.068C619.033 327.727 621.483 331.414 624.675 332.835C633.801 336.902 643.307 338.885 653.12 341.896C664.017 345.239 673.535 351.249 683.471 355.676C687.007 357.251 702.363 368.537 704.785 368.537" fill="none" opacity="1" stroke="#434469" stroke-linecap="round" stroke-linejoin="round" stroke-width="15" vectornator:layerName="Curve 1"/>
<path d="M354.392 431.875L355.12 518.528C353.86 517.734 354.392 431.875 354.392 431.875ZM355.529 430.084C655.912 429.667 655.912 429.667 655.912 429.667C655.912 429.667 507.575 344.871 355.529 430.084ZM354.281 518.528L460.41 439.665C460.41 439.665 489.248 418.237 498.861 411.094C508.474 403.951 498.861 411.094 498.861 411.094L654.663 518.111C654.663 518.111 506.327 433.314 354.281 518.528ZM657.282 431.875L658.009 518.528M553.17 439.778C568.313 441.832 578.234 449.795 590.491 456.597C595.858 459.576 601.732 462.001 606.741 465.357C609.14 466.965 611.115 468.942 613.368 470.679C615.348 472.205 617.615 476.79 619.437 475.143C621.376 473.393 616.919 470.895 615.268 468.964C609.024 461.655 600.006 455.02 591.636 449.34C589.12 447.634 586.451 446.077 583.751 444.562C581.502 443.3 575.774 438.975 576.803 441.018C578.338 444.062 582.519 445.715 585.476 447.984C588.194 450.069 591.107 451.987 593.822 454.073C604.214 462.062 614.167 469.263 625.926 475.973M540.496 427.996C540.496 428.555 540.119 429.203 540.496 429.673C545.311 435.702 550.505 441.538 555.88 447.254C558.313 449.841 563.327 452.686 565.971 453.715C566.155 453.786 566.401 453.899 566.404 454.062C566.404 454.072 563.806 454.062 559.274 454.062C557.114 454.062 554.954 454.062 552.793 454.062C547.603 454.062 542.412 454.062 537.22 454.062C519.539 454.062 500.271 455.785 482.805 453.328C477.762 452.619 472.781 450.741 467.803 449.739C465.547 449.284 463.269 448.859 461.099 448.186C460.299 447.937 457.72 447.77 458.578 447.77C484.012 447.77 507.748 455.044 533.093 456.732C540.804 457.246 548.454 457.298 556.222 457.298C556.53 457.298 557.018 457.524 557.144 457.298C560.015 452.164 548.304 447.252 544.4 445.325C535.522 440.945 526.331 435.897 516.674 432.661C509.603 430.293 496.765 429.236 491.262 424.816C491.174 424.746 500.391 423.465 502.56 423.336C509.087 422.945 515.313 422.442 521.8 421.58C536.061 419.686 549.608 417.134 563.422 414.323C569.985 412.988 571.081 418.395 575.985 418.395C576.828 418.395 574.334 418.13 573.514 417.98C569.665 417.277 572.037 417.859 569.12 417.071C565.296 416.039 561.444 414.743 557.627 413.97C545.299 411.479 532.645 411.728 520.236 408.379C506.538 404.681 492.407 404.823 477.944 404.823C474.928 404.823 467.872 403.708 465.052 404.823C461.787 406.115 457.647 405.833 454.485 407.083C446.248 410.342 437.144 412.276 427.522 414.194C416.137 416.465 397.245 416.33 393.191 425.976M557.954 425.668C542.269 425.668 526.584 425.668 510.899 425.668C504.52 425.668 497.29 426.422 490.99 425.668C475.769 423.848 461.848 422.942 446.091 422.942C441.302 422.942 435.211 422.163 430.497 422.942C424.09 424.004 418.175 427.317 412.103 429.134C406.498 430.812 394.404 433.151 390.656 437.676C387.298 441.73 385.404 446.599 382.778 450.753C382.342 451.444 379.392 457.518 378.686 456.317C377.425 454.174 377.185 450.422 377.185 447.922C377.185 447.043 377.185 446.165 377.185 445.286C377.185 444.825 377.185 443.439 377.185 443.901C377.185 447.282 377.185 450.664 377.185 454.046C377.185 463.388 381.244 489.73 369.042 489.73C367.837 489.73 371.493 489.636 372.611 489.276C373.318 489.048 373.998 488.765 374.65 488.446C378.437 486.594 382.083 484.415 385.614 482.383C396.709 476.001 407.864 471.332 420.553 468.751C425.029 467.839 429.597 468.356 433.975 467.13C436.129 466.525 440.804 466.777 440.804 466.777C440.804 466.777 437.392 466.356 435.812 466.777C432.501 467.656 430.938 470.606 427.976 471.779C423.562 473.525 416.618 471.666 412.647 473.236C412.335 473.36 412.026 473.486 411.711 473.607C411.198 473.804 399.567 476.008 399.567 474.347M407.933 455.218C419.542 455.218 431.151 455.218 442.761 455.218C447.682 455.218 452.603 455.218 457.523 455.218C459.721 455.218 461.918 455.218 464.116 455.218C464.674 455.218 471.974 455.713 472.308 455.218C472.442 455.018 472.445 454.733 472.308 454.534C472.273 454.483 469.2 454.332 468.76 454.119C465.005 452.292 461.251 451.148 457.069 450.025C443.101 446.273 428.629 446.074 414.281 444.147C412.973 443.972 399.002 440.258 398.946 439.829C398.73 438.17 403.092 439.584 405.154 439.375C411.8 438.702 418.379 438.285 425.029 437.816C443.492 436.513 462.446 437.283 481.037 437.283C483.24 437.283 499.332 437.121 500.27 436.414C501.918 435.17 494.157 434.861 493.593 434.805C487.222 434.161 481.019 433.739 474.536 433.739C457.839 433.739 453.51 434.605 440.931 442.571C438.122 444.35 432.752 445.86 430.749 447.445C430.637 447.533 430.749 448.39 430.749 448.528C430.749 449.464 449.323 454.882 452.594 456.603C462.11 461.613 480.237 465.684 492.022 460.731C495.508 459.265 514.385 460.731 518.811 460.731C522.648 460.731 540.782 461.099 540.782 459.188M588.084 423.932C594.861 423.932 602.283 424.096 609.006 424.096C609.492 424.096 608.105 423.792 607.709 423.565C607.294 423.327 606.944 423.017 606.511 422.801C606.289 422.691 606 422.695 605.766 422.6C603.685 421.762 601.674 420.779 599.499 420.08C598.797 419.855 598.046 419.689 597.349 419.495C597.311 419.484 596.047 419.107 596.068 419.146C598.314 423.23 602.341 426.668 604.386 431.043C609.548 442.089 611.348 454.917 611.348 466.707C611.348 467.48 611.54 479.853 611.348 480.004C610.362 480.785 608.046 474.917 607.419 474.242C604.126 470.692 600.596 468.451 595.253 467.159C583.088 464.216 573.176 468.703 560.967 462.941C559.084 462.053 554.737 460.696 553.691 459.065C553.341 458.52 555.14 458.665 555.889 458.552C560.487 457.855 565.124 457.241 569.867 456.857C572.545 456.641 575.224 456.424 577.903 456.207C583.361 455.766 611.074 458.544 607.75 449.65C606.936 447.475 603.534 445.116 601.696 443.51C589.218 432.609 574.524 431.912 557.224 431.912C554.472 431.912 560.351 432.507 561.002 432.507C561.424 432.507 562.69 432.507 562.268 432.507C545.739 432.507 530.511 435.504 514.701 439.202C507.325 440.927 499.775 442.428 492.261 443.732C480.921 445.697 469.171 446.555 461.834 454.34C460.286 455.983 458.278 456.583 457.186 458.311C456.781 458.952 457.186 460.51 457.186 461.242C457.186 466.419 465.836 465.467 471.113 464.884C478.791 464.036 485.88 460.732 493.698 459.94C505.294 458.766 518.656 458.054 530.355 459.05C535.129 459.457 541.498 459.303 546.045 460.439C550.628 461.585 556.029 463.373 560.402 465.13C565.568 467.204 573.426 468.297 579.367 469.2C582.906 469.738 586.056 471.284 589.548 471.985C592.609 472.6 605.808 476.413 607.607 475.686C608.664 475.258 609.104 472.629 609.356 471.918M609.356 471.918C599.683 471.918 582.785 473.419 572.652 471.72C567.885 470.92 563.216 469.962 558.435 469.16C555.818 468.722 552.554 469.8 550.011 469.16C546.669 468.32 542.944 467.168 539.399 466.625C531.239 465.376 524.126 468.327 517.533 463.033M625.67 477.628C626.909 479.554 625.516 482.306 627.325 484.073C631.253 487.904 644.407 490.673 644.407 496.504C644.407 496.772 644.407 495.968 644.407 495.7C644.407 495.18 644.407 494.66 644.407 494.139C644.407 492.729 644.407 491.319 644.407 489.908C644.407 485.252 644.407 480.598 644.407 475.942C644.407 466.903 643.579 458.738 641.556 450.215C640.816 447.1 638.574 444.616 637.031 442.136C636.191 440.787 633.843 439.483 634.955 439.483" fill="none" opacity="1" stroke="#2b2b45" stroke-linecap="round" stroke-linejoin="round" stroke-width="20" vectornator:layerName="Curve 2"/>
<path d="M626.227 447.659C625.419 447.567 624.606 447.627 623.777 447.874C620.466 448.855 618.544 452.337 619.525 455.649C612.82 456.983 615.428 455.811 612.824 456.981C610.613 457.972 617.738 456.718 620.084 457.324C620.649 457.47 620.463 458.443 620.642 459C621.003 460.116 621.352 461.234 621.715 462.35C622.053 463.387 622.383 464.415 622.746 465.443C622.866 465.935 622.871 466.504 622.962 466.99C623.058 467.515 623.322 467.995 623.52 468.494C623.221 468.351 622.87 468.297 622.576 468.15C621.284 467.502 620.132 466.895 618.881 466.173C616.424 464.756 614.019 463.219 611.621 461.705C611.015 461.323 610.424 460.925 609.816 460.545C609.207 460.166 607.328 459.752 607.969 459.429C611.587 457.603 606.122 458.313 606.122 458.313C608.344 460.122 610.521 461.986 612.695 463.854C614.322 465.252 615.953 466.645 617.635 467.978C619.339 469.328 621.093 470.62 622.92 471.801C624.546 472.853 626.261 473.767 627.945 474.722C630.387 476.107 632.897 477.535 635.591 478.373C637.064 478.833 639.315 479.304 640.617 478.159C641.702 477.205 642.656 475.565 641.906 474.078C641.42 473.113 640.777 472.402 640.231 471.5C639.779 470.754 639.435 469.91 639.028 469.137C638.214 467.59 637.322 466.117 636.408 464.627C635.513 463.17 634.623 461.685 633.701 460.246C633.657 460.175 633.617 460.1 633.573 460.031C632.915 457.37 632.258 454.732 631.554 452.083C630.817 449.599 628.649 447.931 626.227 447.659ZM632.498 471.886C632.517 471.911 632.522 471.95 632.542 471.973C632.498 471.959 632.456 471.944 632.413 471.93C632.441 471.914 632.472 471.904 632.498 471.886Z" fill="#2b2b45" fill-rule="nonzero" opacity="1" stroke="#2b2b45" stroke-linecap="round" stroke-linejoin="round" stroke-width="15" vectornator:layerName="path"/>
<path d="M603.889 450.708C602.038 450.857 600.129 450.953 598.303 451.31C595.155 451.926 592.094 452.942 588.982 453.716C584.048 454.942 579.05 455.937 574.075 456.981C579.05 458.024 584.048 459.019 588.982 460.246C592.094 461.02 595.155 462.034 598.303 462.651C600.129 463.009 602.038 463.104 603.889 463.252C607.343 463.252 610.117 460.435 610.117 456.981C610.117 453.526 607.343 450.708 603.889 450.708Z" fill="#2b2b45" fill-rule="nonzero" opacity="1" stroke="none" vectornator:layerName="path"/>
<path d="M440.002 443.964C434.181 444.51 428.421 445.163 422.732 446.541C420.241 447.145 417.788 448.103 415.387 448.99C412.584 450.026 409.856 451.229 407.224 452.641C404.733 453.977 402.319 455.473 399.879 456.894C398.591 457.643 397.351 458.401 395.969 458.956C392.404 460.39 389.504 460.87 388.15 464.842C388.626 464.071 389.147 463.341 389.869 462.78C391.753 461.312 394.288 461.464 396.528 461.105C398.126 460.848 399.662 460.372 401.21 459.902C405.686 458.541 410.08 457.07 414.742 456.508C419.35 455.952 424.046 456.137 428.661 456.379C432.633 456.588 436.627 456.494 440.602 456.465C444.053 456.291 446.706 453.342 446.531 449.892C446.357 446.442 443.452 443.789 440.002 443.964Z" fill="#2b2b45" fill-rule="nonzero" opacity="1" stroke="none" vectornator:layerName="path"/>
<path d="M395.497 452.814C395.079 452.729 394.756 452.712 394.894 452.985C396.335 455.814 394.89 452.978 392.962 452.899C389.507 452.899 386.733 455.673 386.733 459.128C386.733 459.385 386.832 459.61 386.862 459.858C386.45 459.991 386.069 460.13 385.573 460.288C384.113 460.751 382.649 461.15 381.192 461.62C381.145 461.635 381.111 461.696 381.063 461.705C380.234 461.87 379.322 461.71 378.528 462.049C377.972 462.287 377.4 462.515 376.981 462.951C376.577 463.372 376.295 463.972 376.166 464.541C376.042 465.078 376.075 465.652 376.251 466.173C376.422 466.678 376.758 467.107 377.153 467.463C378.359 468.544 380.231 467.955 381.535 467.376C381.564 467.376 381.592 467.377 381.621 467.376C382.583 467.361 383.538 467.254 384.499 467.204C386.054 467.124 387.628 467.041 389.181 466.947C390.777 466.851 392.357 466.779 393.95 466.646C395.389 466.526 396.834 466.353 398.246 466.044C399.402 465.792 400.554 465.523 401.725 465.357C403.111 465.161 404.557 465.238 405.849 464.455C406.295 464.185 406.787 463.938 407.139 463.553C407.695 462.943 408.332 462.286 408.556 461.491C408.898 460.277 409.033 458.944 408.77 457.711C408.557 456.706 407.833 455.885 407.181 455.091C406.82 454.649 406.26 454.38 405.764 454.102C404.373 453.324 402.639 453.068 401.08 452.985C399.637 452.908 398.187 453.082 396.742 453.029C396.437 453.016 395.914 452.898 395.497 452.814Z" fill="#2b2b45" fill-rule="nonzero" opacity="1" stroke="none" vectornator:layerName="path"/>
<path d="M704.713 566.658C704.713 558.929 711.487 552.665 719.842 552.665C728.199 552.665 734.973 558.929 734.973 566.658C734.973 574.386 728.199 580.65 719.842 580.65C711.487 580.65 704.713 574.386 704.713 566.658Z" fill="#2b2b45" fill-rule="nonzero" opacity="1" stroke="#2b2b45" stroke-linecap="butt" stroke-linejoin="round" stroke-width="10" vectornator:layerName="Oval 1"/>
<path d="M348.972 604.156C348.598 604.186 348.182 604.28 347.856 604.328C346.946 604.465 346.028 604.675 345.236 605.144C344.385 605.647 343.677 606.372 343.087 607.164C342.629 607.777 342.367 608.58 342.143 609.311C341.853 610.251 341.946 611.367 342.143 612.319C342.323 613.194 342.937 615.012 343.56 615.626C343.673 615.737 343.626 615.216 343.732 615.454C344.344 616.841 344.575 618.363 345.063 619.793C345.368 620.684 345.632 621.592 345.879 622.499C345.927 622.673 346.001 622.843 346.051 623.015C346.07 623.078 346.077 623.251 346.094 623.187C346.183 622.843 346.276 622.502 346.352 622.156C346.378 622.04 346.403 621.944 346.481 621.855C346.201 622.75 345.819 623.885 346.395 624.733C346.682 625.157 346.896 625.781 347.383 625.936C348.513 626.298 349.746 626.443 350.905 626.193C351.491 626.068 351.757 625.355 352.152 624.905C352.464 624.548 352.435 623.994 352.538 623.53C352.607 623.224 352.707 622.928 352.796 622.629C353.348 620.761 354.031 618.949 354.428 617.043C354.702 615.732 355.058 614.782 354.901 613.392C354.854 612.988 354.728 612.587 354.643 612.189C355.466 609.019 353.76 605.706 350.605 604.671C349.849 604.472 350.33 605.392 349.831 604.457C349.676 604.165 349.346 604.127 348.972 604.156ZM354.256 609.998C354.284 610.116 354.329 610.222 354.342 610.342C354.358 610.49 354.38 610.666 354.386 610.815C354.36 610.701 354.324 610.585 354.299 610.471C354.263 610.309 354.255 610.159 354.256 609.998ZM352.152 621.899C352.174 621.934 352.214 621.95 352.237 621.984C352.336 622.128 352.398 622.333 352.453 622.499C352.513 622.684 352.524 622.864 352.538 623.058C352.542 623.121 352.579 623.32 352.538 623.273C352.225 622.921 352.221 622.381 352.152 621.899Z" fill="#ffffff" fill-rule="nonzero" opacity="1" stroke="none" vectornator:layerName="path"/>
<path d="M347.383 605.273C346.571 605.24 345.743 605.356 344.935 605.66C341.702 606.878 340.066 610.503 341.282 613.736C342.231 616.099 343.575 618.697 344.161 621.038C344.506 622.416 344.21 624.013 344.375 625.421C344.753 628.626 346.311 631.56 349.36 632.939C352.201 634.224 355.282 633.643 357.778 631.908C358.705 631.264 359.537 630.529 360.357 629.759C360.495 629.63 360.649 629.502 360.786 629.373C360.881 629.283 361.126 629.068 361.001 629.029C361.394 628.888 361.759 628.714 362.161 628.599C363.23 628.294 364.015 628.125 365.125 627.998C367.896 627.683 370.759 627.623 373.544 627.525C377.741 627.378 381.907 627.215 386.088 626.795C392.951 626.108 399.797 625.059 406.708 625.077C408.731 625.082 410.898 625.074 412.894 625.463C414.922 625.859 416.866 626.641 418.866 627.139C420.179 627.466 421.241 627.615 422.604 627.784C430.391 628.745 438.301 628.097 446.101 627.654C438.411 627.245 430.603 627.032 423.075 625.249C421.878 624.964 420.862 624.726 419.725 624.304C417.739 623.566 415.861 622.549 413.84 621.899C411.659 621.195 409.272 620.887 407.009 620.609C398.356 619.548 389.614 620.08 380.933 619.449C376.725 619.144 372.56 618.298 368.347 618.074C365.698 617.934 362.95 618.041 360.313 618.333C358.775 618.502 357.447 618.921 356.147 619.493C356.134 619.393 356.162 619.291 356.147 619.192C355.641 615.816 354.141 612.515 353.011 609.311C352.097 606.887 349.819 605.37 347.383 605.273Z" fill="#ffffff" fill-rule="nonzero" opacity="1" stroke="none" vectornator:layerName="path"/>
<path d="M353.924 577.993L354.281 662.205C354.281 662.205 322.567 625.289 353.924 577.993ZM658.71 663.645L658.009 579.435C658.009 579.435 689.873 616.221 658.71 663.645ZM354.281 577.993L658.009 577.563M354.281 663.645L403.844 663.575L658.009 663.215M353.559 602.27C351.114 604.597 351.675 608.881 351.675 611.991C351.675 614.315 350.623 619.637 351.675 621.742C355.374 629.141 370.227 627.314 377.6 629.157C379.288 629.579 393.617 632.158 394.709 631.15C395.567 630.357 391.554 626.155 391.144 625.572C387.686 620.637 383.177 616.162 379.565 611.358C377.543 608.666 369.551 590.915 368.307 590.915C367.703 590.915 369.522 591.096 370.061 591.366C370.774 591.722 372.06 592.039 372.861 592.314C375.652 593.277 379.207 593.81 382.187 593.81C391.309 593.81 400.23 595.306 409.197 595.306C436.121 595.306 463.349 595.803 490.445 595.803C509.362 595.803 532.162 592.783 550.227 597.299C557.558 599.131 566.977 595.725 574.164 598.201C580.591 600.414 601.598 604.175 608.485 600.679C611.935 598.928 629.937 600.679 635.318 600.679C636.655 600.679 642.807 601.533 643.662 600.679C644.969 599.371 641.517 597.2 641.517 596.323M653.876 596.774C643.853 596.774 635.753 592.335 626.763 590.492C616.377 588.364 605.46 588.622 594.258 588.622C590.818 588.622 586.324 587.806 583.04 588.622C578.504 589.748 574.78 592.136 571.248 593.722C564.176 596.898 556.494 604.556 558.687 613.324C560.052 618.785 566.234 623.15 570.245 626.329C583.164 636.571 595.972 642.402 612.768 642.402C615.359 642.402 619.201 643.173 621.642 642.402C627.82 640.45 634.017 634.57 639.6 631.737C648.093 627.426 649.968 619.328 655.22 614.313C655.464 614.082 660.641 614.064 660.881 614.313C664.006 617.542 661.303 635.912 657.829 634.188C656.622 633.59 657.42 627.573 657.42 626.296C657.42 621.57 659.104 607.219 657.42 603.082C654.317 595.464 648.024 593.168 640.746 593.168C640.077 593.168 637.348 592.775 636.91 593.168C633.617 596.115 642.883 605.401 644.03 607.151C651.374 618.352 654.969 624.353 654.969 638.749C654.969 640.29 655.734 644.416 654.969 645.986C654.318 647.316 646.274 646.402 644.747 646.402C634.151 646.402 623.555 646.402 612.959 646.402C598.159 646.402 582.265 648.239 567.658 646.402C560.307 645.478 552.744 639.941 546.117 636.913C536.266 632.409 525.738 630.092 514.99 630.092C508.466 630.092 502.175 627.395 495.743 626.391C487.815 625.154 479.441 625.742 471.383 625.742M358.413 641.111C360.407 641.111 362.065 642.746 363.746 643.815C368.087 646.578 370.678 647.538 374.799 649.598C376.331 650.364 380.812 649.598 382.461 649.598C392.324 649.598 402.083 649.526 411.198 647.215C418.786 645.292 427.122 644.881 435.326 644.881C439.127 644.881 444.12 645.797 447.738 644.881C452.73 643.616 459.093 645.036 463.878 643.364C470.375 641.097 479.103 640.934 486.204 640.934C497.91 640.934 507.758 643.032 518.691 646.676C522.215 647.851 530.561 646.078 533.137 648.499C533.63 648.962 536.728 648.499 537.385 648.499C540.633 648.499 543.835 648.95 546.847 648.95C548.176 648.95 549.505 648.95 550.834 648.95C551.585 648.95 553.838 648.95 553.088 648.95C537.305 648.95 521.521 648.95 505.738 648.95C502.038 648.95 494.269 652.326 490.356 650.37C485.84 648.111 479.846 649.201 474.83 647.939C469.597 646.622 464.384 644.905 459.4 643.344C448.43 639.91 435.649 636.916 427.214 628.481C419.772 621.037 413.716 621.468 404.069 620.226C403.241 620.12 391.15 617.061 393.289 614.887C394.328 613.831 401.784 614.887 403.243 614.887C412.361 614.887 421.478 614.887 430.595 614.887C465.9 614.887 501.019 615.386 536.196 615.386C544.147 615.386 554.227 613.96 561.923 615.883C566.856 617.118 572.572 615.146 577.517 616.382C582.562 617.643 588.41 615.616 593.466 616.881C599.058 618.279 606.773 616.147 611.845 618.683C616.421 620.971 625.65 619.556 630.935 619.556C631.583 619.556 633.052 619.244 633.052 619.96" fill="none" opacity="1" stroke="#ffffff" stroke-linecap="round" stroke-linejoin="round" stroke-width="20" vectornator:layerName="Curve 12"/>
<path d="M353.92 610.819L354.277 662.757C354.277 662.757 322.573 639.989 353.92 610.819ZM658.628 663.645L657.928 611.708C657.928 611.708 689.784 634.397 658.628 663.645ZM354.277 610.819L657.928 610.554M354.277 663.645L403.827 663.602L657.928 663.379M353.555 625.792C351.111 627.227 351.672 629.869 351.672 631.788C351.672 633.221 350.62 636.503 351.672 637.801C355.37 642.365 370.219 641.238 377.59 642.374C379.278 642.634 393.604 644.226 394.695 643.603C395.553 643.115 391.54 640.523 391.132 640.164C387.673 637.12 383.166 634.36 379.556 631.396C377.534 629.737 369.543 618.789 368.3 618.789C367.697 618.789 369.514 618.901 370.054 619.067C370.766 619.287 372.052 619.482 372.853 619.653C375.642 620.245 379.197 620.575 382.176 620.575C391.297 620.575 400.214 621.496 409.18 621.496C436.097 621.496 463.317 621.804 490.407 621.804C509.318 621.804 532.113 619.941 550.173 622.726C557.502 623.856 566.918 621.756 574.104 623.282C580.529 624.647 601.531 626.967 608.418 624.81C611.866 623.731 629.863 624.81 635.243 624.81C636.58 624.81 642.73 625.337 643.584 624.81C644.891 624.005 641.44 622.666 641.44 622.124M653.795 622.402C643.775 622.402 635.678 619.665 626.69 618.528C616.307 617.215 605.392 617.375 594.193 617.375C590.755 617.375 586.263 616.872 582.977 617.375C578.442 618.069 574.719 619.543 571.189 620.52C564.119 622.477 556.439 627.202 558.63 632.609C559.995 635.978 566.176 638.67 570.186 640.631C583.101 646.947 595.907 650.543 612.697 650.543C615.289 650.543 619.13 651.02 621.571 650.543C627.747 649.339 633.942 645.714 639.523 643.966C648.014 641.308 649.888 636.312 655.14 633.219C655.382 633.076 660.558 633.067 660.799 633.219C663.922 635.211 661.222 646.54 657.747 645.477C656.541 645.109 657.339 641.398 657.339 640.609C657.339 637.695 659.023 628.844 657.339 626.292C654.236 621.594 647.945 620.179 640.669 620.179C640 620.179 637.272 619.936 636.833 620.179C633.543 621.996 642.806 627.723 643.952 628.802C651.296 635.711 654.888 639.411 654.888 648.291C654.888 649.241 655.655 651.785 654.888 652.755C654.239 653.574 646.195 653.01 644.67 653.01C634.075 653.01 623.482 653.01 612.889 653.01C598.093 653.01 582.203 654.143 567.599 653.01C560.251 652.441 552.69 649.027 546.064 647.158C536.215 644.381 525.69 642.95 514.945 642.95C508.423 642.95 502.134 641.287 495.703 640.669C487.778 639.906 479.405 640.268 471.348 640.268M358.409 649.747C360.401 649.747 362.059 650.754 363.74 651.414C368.08 653.119 370.67 653.71 374.791 654.982C376.321 655.453 380.801 654.982 382.45 654.982C392.311 654.982 402.066 654.936 411.179 653.512C418.767 652.326 427.1 652.071 435.302 652.071C439.101 652.071 444.093 652.638 447.711 652.071C452.701 651.292 459.063 652.168 463.847 651.137C470.342 649.739 479.067 649.638 486.167 649.638C497.87 649.638 507.715 650.932 518.645 653.179C522.168 653.904 530.511 652.811 533.087 654.304C533.581 654.59 536.677 654.304 537.334 654.304C540.582 654.304 543.782 654.582 546.794 654.582C548.122 654.582 549.452 654.582 550.781 654.582C551.531 654.582 553.783 654.582 553.033 654.582C537.254 654.582 521.476 654.582 505.696 654.582C501.997 654.582 494.23 656.664 490.317 655.457C485.803 654.065 479.811 654.737 474.796 653.959C469.564 653.146 464.352 652.087 459.369 651.124C448.402 649.006 435.625 647.16 427.192 641.958C419.751 637.367 413.697 637.632 404.053 636.866C403.225 636.8 391.137 634.914 393.275 633.574C394.314 632.922 401.768 633.574 403.228 633.574C412.342 633.574 421.457 633.574 430.571 633.574C465.869 633.574 500.978 633.88 536.146 633.88C544.094 633.88 554.172 633.002 561.865 634.188C566.799 634.949 572.513 633.733 577.455 634.496C582.499 635.273 588.347 634.023 593.401 634.803C598.992 635.665 606.704 634.351 611.775 635.915C616.351 637.325 625.577 636.454 630.861 636.454C631.507 636.454 632.977 636.261 632.977 636.703" fill="none" opacity="1" stroke="#e8e8e9" stroke-linecap="round" stroke-linejoin="round" stroke-width="20" vectornator:layerName="Curve 13"/>
<path d="M491.845 620.604C491.845 608.331 500.51 598.382 511.201 598.382C521.892 598.382 530.559 608.331 530.559 620.604C530.559 632.877 521.892 642.825 511.201 642.825C500.51 642.825 491.845 632.877 491.845 620.604Z" fill="#ce2e59" fill-rule="nonzero" opacity="1" stroke="#ce2e59" stroke-linecap="butt" stroke-linejoin="round" stroke-width="10" vectornator:layerName="Oval 2"/>
<path d="M466.744 620.604C466.744 595.561 487.006 575.259 512 575.259C536.994 575.259 557.256 595.561 557.256 620.604C557.256 645.648 536.994 665.949 512 665.949C487.006 665.949 466.744 645.648 466.744 620.604Z" fill="#fecb62" fill-opacity="0" fill-rule="nonzero" opacity="1" stroke="#ce2e59" stroke-linecap="butt" stroke-linejoin="round" stroke-width="10" vectornator:layerName="Oval 3"/>
<path d="M491.845 663.645L466.744 705.487M498.447 665.949L485.242 712.92M478.883 687.095L488.193 691.16L479.706 710.601L470.396 706.536L478.883 687.095Z" fill="#ce2e59" fill-rule="nonzero" opacity="1" stroke="#ce2e59" stroke-linecap="square" stroke-linejoin="round" stroke-width="10" vectornator:layerName="Curve 14"/>
<path d="M521.52 667.806L546.008 722.228M528.095 664.767L565.391 714.543M535.967 697.47L542.354 695.192L546.04 693.877L559.498 716.763L549.425 720.357L535.967 697.47Z" fill="#ce2e59" fill-rule="nonzero" opacity="1" stroke="#ce2e59" stroke-linecap="square" stroke-linejoin="round" stroke-width="10" vectornator:layerName="Curve 16"/>
<path d="M547.936 699.421C545.494 699.421 544.355 695.315 543.81 693.574C542.696 690.016 539.954 688.559 537.889 686.649C536.895 685.729 535.902 683.021 535.275 681.766C534.973 681.162 534.069 679.761 534.069 679.182" fill="none" opacity="1" stroke="#ce2e59" stroke-linecap="round" stroke-linejoin="round" stroke-width="10" vectornator:layerName="Curve 17"/>
<path d="M484.55 698.237C483.849 697.579 484.38 693.252 484.38 692.002C484.38 689.84 488.145 680.878 489.257 679.636C490.502 678.246 489.7 675.772 491.037 674.413" fill="none" opacity="1" stroke="#ce2e59" stroke-linecap="round" stroke-linejoin="round" stroke-width="10" vectornator:layerName="Curve 18"/>
<path d="M624.315 442.594C624.315 445.916 627.277 449.447 628.469 451.722C628.635 452.038 630.235 455.603 629.92 455.714C628.749 456.128 625.062 452.554 624.354 451.94C622.716 450.517 620.686 449.311 619.283 447.644C617.174 445.137 615.035 442.067 614.555 438.843C614.529 438.669 613.655 436.061 613.946 435.958C615.601 435.375 619.373 435.772 621.068 436.227C623.174 436.792 625.292 438.291 627.088 439.486C628.41 440.367 629.697 441.63 630.818 442.751C637.147 449.08 632.203 450.438 627.683 457.598C626.237 459.889 625.592 462.124 625.592 464.829C625.592 465.617 625.592 466.405 625.592 467.193C625.592 467.366 625.701 468.252 625.592 467.947C624.912 466.044 622.17 464.49 620.866 463.028C619.022 460.958 617.243 458.753 615.373 456.668C610.715 451.476 607.819 446.205 601.929 442.14C596.842 438.63 590.986 436.593 585.387 434.155C576.033 430.082 566.832 425.861 558.474 420.065C552.861 416.172 546.722 412.035 541.871 407.183C541.445 406.758 538.045 403.49 537.475 404.051C536.483 405.027 539.861 408.421 540.267 408.929C543.159 412.547 546.036 416.281 548.544 420.184C556.398 432.41 563.152 445.37 571.584 457.186C574.613 461.431 576.158 463.514 576.158 468.768C576.158 469.273 576.449 470.676 576.158 471.095C575.362 472.244 572.92 472.59 571.698 473.045C564.248 475.823 559.355 472.599 551.902 470.112C550.283 469.572 548.313 469.103 546.637 468.721C540.615 467.347 534.385 466.864 528.249 466.207C523.468 465.696 517.391 464.565 512.488 465.488C510.9 465.786 508.813 466.907 507.467 467.57C506.602 467.996 505.027 467.885 504.059 468.104C501.938 468.585 499.285 469.116 497.328 470.081C494.877 471.288 489.386 470.256 486.702 470.256C481.738 470.256 476.218 470.914 471.342 471.919C467.2 472.773 461.88 471.919 457.648 471.919C454.232 471.919 451.119 471.151 447.88 471.151C446.588 471.151 443.096 471.491 443.561 471.491" fill="none" opacity="1" stroke="#2b2b45" stroke-linecap="round" stroke-linejoin="round" stroke-width="10" vectornator:layerName="Curve 19"/>
<path d="M367.06 440.867C367.06 450.708 365.182 459.842 365.182 469.834C365.182 472.196 364.381 478.064 365.886 479.431C368.252 481.583 375.185 476.516 376.583 475.582C384.392 470.364 392.379 463.941 398.356 456.804C399.141 455.865 406.271 448.524 404.912 447.155C404.048 446.285 401.79 446.568 400.683 446.568C394.125 446.568 393.204 451.613 391.26 456.772C390.984 457.504 389.026 461.642 389.831 462.528C391.201 464.035 396.999 460.346 398.024 459.548C402.663 455.929 406.194 451.417 410.283 447.315C411.623 445.971 414.571 444.279 415.431 442.584C415.987 441.488 412.809 442.47 412.437 442.087C409.997 439.566 403.885 441.715 400.996 441.715" fill="none" opacity="1" stroke="#2b2b45" stroke-linecap="round" stroke-linejoin="round" stroke-width="10" vectornator:layerName="Curve 20"/>
<path d="M617.772 374.315C619.704 374.315 622.413 373.757 624.357 374.528C626.308 375.301 627.764 377.243 629.372 378.518C635.113 383.068 643.141 386.133 650.042 382.63C651.362 381.96 651.408 371.642 654.202 369.281C656.89 367.011 664.699 365.364 665.708 363.317C666.961 360.772 664.112 358.224 662.355 356.83C657.066 352.632 650.149 352.108 643.943 349.628C642.095 348.89 639.551 347.021 638.099 345.569C637.539 345.009 636.839 344.716 636.287 344.164C635.978 343.854 634.758 343.434 635.195 343.434C638.426 343.434 641.313 344.803 644.35 345.75C646.799 346.514 649.28 347.161 651.737 347.899C653.686 348.484 655.574 349.147 657.475 349.881C659.19 350.543 660.999 350.907 662.727 351.533C663.994 351.993 665.211 352.61 666.489 353.039C666.791 353.141 667.116 353.162 667.416 353.27C667.834 353.422 676.832 356.618 676.923 356.801C676.956 356.867 677.302 357.439 677.274 357.468C677.111 357.633 675.7 357.468 675.515 357.468C674.135 357.468 672.749 357.391 671.382 357.197C669.569 356.94 667.779 356.535 665.973 356.232C663.66 355.845 661.32 355.612 659.016 355.173C654.015 354.22 648.967 352.994 644.071 351.597C634.748 348.936 625.845 344.961 616.401 342.597C611.106 341.271 605.67 340.472 600.39 339.066C591.865 336.796 585.257 332.328 577.866 327.686C569.902 322.684 561.051 317.384 554.372 310.706C551.899 308.232 549.406 304.959 547.32 302.872C546.75 302.303 547.545 304.479 547.827 305.234C548.152 306.103 548.296 307.114 548.52 308.015C549.201 310.754 552.262 319.259 546.281 316.728C540.521 314.291 537.468 308.99 533.506 304.514C530.167 300.741 525.784 297.485 521.626 294.746C520.136 293.764 518.125 293.571 516.441 292.461C514.192 290.979 512.184 288.776 510.775 287.366C510.322 286.914 507.325 287.366 506.811 287.366C503.415 287.366 497.918 286.28 494.732 287.366C493.098 287.924 487.861 288.537 487.198 290.496C485.671 295.009 489.912 301.755 491.961 305.435C496.417 313.439 504.524 317.924 510.841 324.241C513.218 326.618 517.696 329.731 521.451 327.513C524.309 325.825 525.22 322.01 526.618 319.172C528.019 316.328 524.577 308.875 520.29 312.465C512.249 319.197 510.302 335.182 497.293 332.996C491.154 331.965 486.826 321.992 481.452 318.609C477.739 316.271 473.159 316.362 468.938 316.362C464.382 316.362 459.021 315.647 454.524 316.574C450.103 317.486 445.849 320.031 441.467 321.119C439.882 321.513 437.94 321.591 436.741 322.772C436.425 323.083 437.032 323.446 437.254 323.446C439.667 323.446 442.161 324.259 444.737 324.259C445.989 324.259 458.29 324.651 458.721 324.259C459.003 324.002 456.274 320.143 456.03 319.762C453.496 315.799 450.438 309.589 446.307 307.523C443.282 306.011 438.528 310.157 435.963 310.948C432.909 311.89 429.185 311.195 426.735 313.633C419.303 321.028 418.116 331.494 416.255 341.205C415.561 344.823 417.395 356.357 414.236 357.911C413.414 358.316 411.917 358.087 410.913 358.087" fill="none" opacity="1" stroke="#434469" stroke-linecap="round" stroke-linejoin="round" stroke-width="15" vectornator:layerName="Curve 21"/>
<path d="M410.913 358.087C396.988 358.087 382.794 357.986 369.61 352.768C363.919 350.516 358.245 348.985 352.632 347.572C351.423 347.268 348.375 346.172 347.041 346.823C345.668 347.493 344.208 349.787 343.109 350.869C341.435 352.518 338.977 353.786 337.222 355.531C333.183 359.551 331.39 361.487 326.047 363.594C321.182 365.512 315.625 368.397 310.562 369.35C306.761 370.065 302.112 369.478 299.439 372.11C297.604 373.918 300.201 381.705 302.04 382.632C304.196 383.719 307.366 383.549 309.765 384.375C311.546 384.988 315.16 386.279 316.534 387.653C317.969 389.088 320.595 391.566 322.524 392.166C325.447 393.076 328.771 393.945 331.758 395.213C333.764 396.066 340.263 398.222 341.321 399.217C342.103 399.951 347.757 400.38 345.779 399.384" fill="none" opacity="1" stroke="#434469" stroke-linecap="round" stroke-linejoin="round" stroke-width="15" vectornator:layerName="Curve 22"/>
<path d="M557.151 353.887C566.812 353.887 568.372 358.812 575.815 362.364C578.866 363.819 583.151 365.473 585.474 367.655C586.339 368.468 593.205 371.116 593.205 371.927" fill="none" opacity="1" stroke="#434469" stroke-linecap="round" stroke-linejoin="round" stroke-width="15" vectornator:layerName="Curve 23"/>
<path d="M574.5 377.825C572.482 379.112 570.477 381.13 567.958 381.13" fill="none" opacity="1" stroke="#434469" stroke-linecap="round" stroke-linejoin="round" stroke-width="15" vectornator:layerName="Curve 24"/>
<path d="M593.887 358.821C592.933 358.516 590.369 358.619 590.282 358.41C590.214 358.245 593.065 357.849 593.286 357.823C596.354 357.472 599.152 358.072 602.005 358.349" fill="none" opacity="1" stroke="#434469" stroke-linecap="round" stroke-linejoin="round" stroke-width="15" vectornator:layerName="Curve 25"/>
<path d="M670.98 403.721C669.661 403.721 668.341 403.721 667.022 403.721C665.566 403.721 669.879 403.721 670.281 403.721C672.919 403.721 675.308 403.236 677.76 402.211C681.007 400.852 684.137 398.921 687.146 397.144C689.557 395.72 691.249 393.453 693.759 392.179C694.738 391.683 697.275 392.179 698.385 392.179C698.599 392.179 697.958 392.179 697.744 392.179C697.159 392.179 696.575 392.179 695.99 392.179" fill="none" opacity="1" stroke="#434469" stroke-linecap="round" stroke-linejoin="round" stroke-width="15" vectornator:layerName="Curve 26"/>
<path d="M733.144 387.475C730.906 387.475 728.01 389.509 725.759 390.067C725.029 390.249 724.341 390.622 723.603 390.806C723.271 390.888 722.38 391.339 722.618 391.093C723.094 390.6 724.436 390.313 725.074 389.856C727.258 388.29 730.368 386.782 732.174 384.872C733.078 383.916 733.269 381.939 733.535 380.729C733.783 379.6 734.021 377.293 733.659 376.137C733.245 374.812 725.028 375.36 723.907 375.36" fill="none" opacity="1" stroke="#434469" stroke-linecap="round" stroke-linejoin="round" stroke-width="15" vectornator:layerName="Curve 27"/>
<path d="M298.487 380.328C297.844 380.328 297.215 380.526 296.584 380.654C296.261 380.719 292.512 381.626 292.512 380.625" fill="none" opacity="1" stroke="#434469" stroke-linecap="round" stroke-linejoin="round" stroke-width="15" vectornator:layerName="Curve 28"/>
<path d="M537.993 345.028C536.945 345.028 530.138 344.819 529.162 346.684C528.812 347.352 530.649 348.988 530.978 349.446C531.079 349.588 532.161 351.005 532.161 350.597" fill="none" opacity="1" stroke="#434469" stroke-linecap="round" stroke-linejoin="round" stroke-width="15" vectornator:layerName="Curve 29"/>
<path d="M585.781 413.652C586.323 413.713 584.691 413.713 584.146 413.713C583.948 413.713 584.541 413.745 584.731 413.797C585.167 413.917 585.611 414.127 586.031 414.279C586.796 414.557 588.154 415.298 588.96 415.298C589.061 415.298 588.752 415.327 588.654 415.298C588.477 415.245 588.335 415.11 588.167 415.033C587.8 414.864 587.431 414.704 587.065 414.531C586.186 414.115 584.128 413.465 585.781 413.652Z" fill="none" opacity="1" stroke="#2b2b45" stroke-linecap="round" stroke-linejoin="round" stroke-width="15" vectornator:layerName="Curve 30"/>
</g>
</svg>
