<?xml version="1.0" encoding="UTF-8" standalone="no"?>
<!DOCTYPE svg PUBLIC "-//W3C//DTD SVG 1.1//EN" "http://www.w3.org/Graphics/SVG/1.1/DTD/svg11.dtd">
<!-- Created with Vectornator (http://vectornator.io/) -->
<svg height="150%" stroke-miterlimit="10" style="fill-rule:nonzero;clip-rule:evenodd;stroke-linecap:round;stroke-linejoin:round;" version="1.1" viewBox="0 0 1024 1024" width="150%" xml:space="preserve" xmlns="http://www.w3.org/2000/svg" xmlns:vectornator="http://vectornator.io" xmlns:xlink="http://www.w3.org/1999/xlink">
<defs/>
<clipPath id="ArtboardFrame">
<rect height="1500" width="1500" x="0" y="0"/>
</clipPath>
<g clip-path="url(#ArtboardFrame)" id="Layer-1" vectornator:layerName="Layer 1">
<path d="M0 0L1024 0L1024 1024L0 1024L0 0Z" fill="#fecb62" fill-rule="nonzero" opacity="1" stroke="#2b2b45" stroke-linecap="butt" stroke-linejoin="round" stroke-width="10" vectornator:layerName="Rectangle 1"/>
<path d="M334.524 518.347" fill="none" opacity="1" stroke="#ffffff" stroke-linecap="butt" stroke-linejoin="round" stroke-width="10" vectornator:layerName="Curve 8"/>
<path d="M674.201 576.809L654.372 577.396" fill="none" opacity="1" stroke="#ce2e59" stroke-linecap="round" stroke-linejoin="round" stroke-width="10" vectornator:layerName="Line 4"/>
<path d="M663.812 434.774L663.477 561.753" fill="none" opacity="1" stroke="#ce2e59" stroke-linecap="round" stroke-linejoin="round" stroke-width="10" vectornator:layerName="Line 1"/>
<path d="M663.195 561.753L652.471 576.809" fill="none" opacity="1" stroke="#ce2e59" stroke-linecap="round" stroke-linejoin="round" stroke-width="10" vectornator:layerName="Line 2"/>
<path d="M663.812 562.563L675.591 576.809" fill="none" opacity="1" stroke="#ce2e59" stroke-linecap="round" stroke-linejoin="round" stroke-width="10" vectornator:layerName="Line 3"/>
<path d="M325.743 422.477L461.816 366.793L505.106 349.078M698.251 429.622L505.106 349.078M698.257 429.371L505.508 501.228M325.743 422.477L505.508 501.228M440.803 433.221C466.145 433.221 494.987 431.18 519.5 438.285C526.744 440.385 531.413 442.807 535.915 448.385C537.912 450.861 541.776 453.717 540.529 456.556C539.233 459.506 534.254 460.402 530.703 460.253C526.151 460.061 522.237 457.242 518.064 455.609C503.166 449.781 489.157 443.038 475.326 435.424C472.509 433.874 469.94 431.898 466.886 430.759C463.83 429.619 458.175 425.845 457.226 428.673C456.268 431.526 463.21 431.347 466.33 432.415C470.925 433.988 475.609 435.364 480.338 436.585C492.636 439.759 505.295 442.049 517.566 445.302C520.963 446.203 530.373 446.528 527.583 448.474C523.76 451.14 517.873 448.474 513.018 448.474C501.256 448.474 489.494 448.474 477.732 448.474C473.857 448.474 469.981 448.474 466.106 448.474C462.31 448.474 451.111 447.427 454.72 448.474C459.267 449.794 464.27 448.959 469.035 449.324C476.241 449.878 483.429 450.616 490.628 451.232C503.084 452.298 515.723 453.768 528.222 454.271C532.433 454.44 536.656 454.131 540.869 454.271C544.668 454.397 550.573 458.114 552.238 455.069C553.902 452.028 547.825 449.263 544.512 447.609C540.567 445.639 535.789 445.454 531.359 444.644C519.901 442.55 507.762 445.404 496.662 443.239C492.377 442.404 488.551 440.263 484.521 438.722C465.857 431.583 447.263 424.714 429.035 416.681C425.009 414.906 421.131 412.874 417.143 411.032C413.897 409.532 409.416 403.976 407.334 406.655C405.128 409.492 411.354 412.598 413.906 415.194C416.488 417.82 419.737 419.857 422.628 422.211C434.401 431.795 446.145 441.322 458.736 450.064C461.827 452.21 465.119 454.125 468.147 456.341C470.78 458.268 477.546 459.927 475.699 462.478C473.724 465.206 468.403 461.775 464.935 460.778C460.959 459.633 457.397 457.557 453.55 456.105C441.144 451.42 429.105 446.756 417.359 440.77C414.264 439.192 407.705 438.878 408.272 435.742C408.826 432.672 415.083 433.955 418.57 434.064C422.459 434.184 426.15 435.631 429.94 436.415C447.807 440.111 466.753 444.068 485.226 443.143C488.605 442.974 492.118 443.135 495.317 442.152C510.742 437.413 526.076 418.523 535.815 407.653C537.96 405.259 539.053 401.836 542.048 400.333C545.063 398.819 548.915 399.514 552.371 399.342C559.192 399.002 564.923 398.702 570.96 402.292C574.234 404.239 581.479 412.893 583.89 415.631M449.301 381.345C470.471 381.345 491.637 382.1 512.786 382.942C516.027 383.072 519.276 383.293 522.471 383.793C539.268 386.422 555.117 392.54 572.039 394.425M448.081 393.065C478.992 393.065 509.912 393.742 540.786 395.091C559.603 395.912 578.565 403.535 596.72 407.579M440.711 405.76C469.414 405.76 497.924 410.116 526.404 413.294C541.027 414.926 553.996 420.334 567.965 423.949M406.313 414.854C408.564 412.679 412.942 414.381 416.263 414.381C425.968 414.381 434.55 415.731 443.774 418.47C450.707 420.529 457.553 420.501 464.595 421.427C490.118 424.786 516.1 423.897 542.164 423.897C549.631 423.897 563.938 424.524 569.757 429.709C572.362 432.029 574.371 435.402 574.371 438.626C574.371 439.671 574.371 440.716 574.371 441.761C574.371 442.249 574.775 443.555 574.371 443.225C570.591 440.133 568.266 431.987 565.807 427.986C560.237 418.923 555.514 409.949 550.778 400.584C550.29 399.62 542.378 386.365 539.732 388.806C536.94 391.382 534.467 398.144 532.653 401.368C525.864 413.441 521.102 427.056 518.595 440.393C517.481 446.321 516.96 452.905 516.96 458.959C516.96 460.77 516.96 462.582 516.96 464.393C516.96 465.241 516.96 467.784 516.96 466.937C516.96 460.272 514.523 454.39 511.94 448.223C508.024 438.876 505.559 428.959 501.558 419.609C499.554 414.924 496.714 410.123 494.421 405.516C493.699 404.065 492.957 402.62 492.296 401.146C491.993 400.469 490.972 398.913 490.604 399.564C489.276 401.91 490.604 408.88 490.604 411.971C490.604 423.495 489.535 435.497 490.604 446.973C490.942 450.61 491.442 453.881 491.442 457.546C491.442 458.766 491.442 459.986 491.442 461.206C491.442 461.892 492.174 463.47 491.442 463.262C488.401 462.397 485.855 458.523 483.566 456.718C473.954 449.138 464.252 441.09 455.616 432.57C452.056 429.058 448.933 425.045 444.471 422.426C444.033 422.169 443.609 421.025 443.359 421.435C440.923 425.419 444.34 441.77 445.583 446.212C445.806 447.01 448.143 454.609 447.458 455.269C446.908 455.8 441.24 451.323 440.645 450.944C434.673 447.142 427.096 443.342 420.346 440.94C413.315 438.437 404.724 435.904 398.587 431.794C394.948 429.356 388.864 426 384.72 424.843C380.487 423.663 373.186 422.944 370.313 420.385C368.087 418.402 353.003 420.655 351.666 419.424C351.048 418.855 351.339 417.612 350.081 417.612C349.381 417.612 351.48 417.612 352.18 417.612C353.273 417.612 354.366 417.612 355.458 417.612C358.846 417.612 362.725 417.119 366.048 417.612C370.46 418.267 376.417 419.866 380.189 421.546C385.148 423.755 392.683 421.555 398.114 423.062C402.997 424.416 410.608 422.55 415.16 424.577C417.455 425.6 420.309 425.037 422.861 425.605C438.884 429.174 454.052 428.843 471.085 428.843C481.45 428.843 491.258 429.514 499.143 422.44M404.235 406.353C404.291 406.269 404.293 406.106 404.403 406.099C416.901 405.28 429.428 404.808 441.917 403.883C447.747 403.451 454.643 401.01 460.268 399.497C461.324 399.213 465.07 399.343 465.941 398.614C466.205 398.393 464.751 398.389 461.753 398.389C459.983 398.389 458.213 398.389 456.443 398.389C453.167 398.389 449.837 397.86 446.615 398.389C429.303 401.231 413.003 408.955 397.233 415.546C392.6 417.482 387.723 418.927 383.201 420.938C382.769 421.13 376.97 423.317 377.271 423.634C378.246 424.657 381.697 421.927 385.032 420.051C393.085 415.522 400.82 410.407 408.579 405.434C412.611 402.849 416.501 400.216 420.715 397.869C421.977 397.167 423.312 396.606 424.516 395.893C424.652 395.812 426.748 394.797 426.457 394.672C425.354 394.196 420.46 394.672 419.908 394.672C411.003 394.672 400.157 403.65 393.029 408.206C390.778 409.645 388.371 410.944 386.096 412.392C385.402 412.834 384.919 414.471 384.265 413.984C383.878 413.695 384.834 413.218 385.244 412.955C386.458 412.176 387.888 411.696 389.269 411.182C395.458 408.878 401.606 406.186 407.665 403.617C418.03 399.223 428.919 395.713 439.291 391.366C442.886 389.858 447.256 387.34 451.374 387.34C452.19 387.34 449.743 387.34 448.927 387.34C447.417 387.34 445.907 387.34 444.396 387.34C440.582 387.34 441.55 387.117 437.505 388.179C428.838 390.455 421.458 394.165 413.456 397.72C411.186 398.729 409.097 399.83 406.935 400.958C406.408 401.232 405.842 401.454 405.353 401.779C405.075 401.963 404.153 402.18 404.48 402.284C407.251 403.165 411.286 401.286 413.639 400.304C420.013 397.643 426.684 394.644 432.399 390.944C435.428 388.982 433.396 389.927 436.395 388.433C438.877 387.197 441.212 385.202 443.715 384.07C443.867 384.001 444.222 383.251 443.985 383.143C440.75 381.678 436.525 384.385 434.12 385.752C427.146 389.714 421.75 395.555 414.9 399.61C408.365 403.477 399.285 407.292 391.332 408.076C386.511 408.551 380.968 407.489 376.19 408.366C370.979 409.324 367.295 412.695 362.769 414.681C361.172 415.382 359.319 415.638 357.708 416.345C356.346 416.943 348.619 416.367 348.047 416.876C346.51 418.245 344.952 420.411 342.554 420.411C342.173 420.411 343.318 420.524 343.659 420.676C344.232 420.931 344.556 421.107 345.234 421.232C346.727 421.508 348.273 421.733 349.744 422.104C354.389 423.278 359.084 423.412 363.711 424.266C371.696 425.74 378.84 428.346 385.839 431.464C389.209 432.965 394.481 437.096 398.44 437.096C399.327 437.096 396.661 437.194 395.782 437.096C395.295 437.041 394.833 436.871 394.354 436.776C392.485 436.406 390.955 435.755 389.069 435.45C384.423 434.697 371.441 432.899 369.474 429.393C368.781 428.158 367.621 427.213 365.901 426.733C365.259 426.554 363.283 426.246 363.956 426.246C365.967 426.246 367.834 427.14 369.718 427.591C378.673 429.731 386.034 433.035 394.163 436.656C401.94 440.121 410.993 440.817 418.541 444.755C423.579 447.383 427.996 450.964 432.921 453.889C435.156 455.217 437.481 455.22 439.568 456.149C440.05 456.364 441.163 456.389 441.163 456.389C441.163 456.389 438.497 454.788 437.064 454.147C434.706 453.092 431.947 452.323 429.369 451.862C421.751 450.499 414.07 448.765 406.703 447.513C402.853 446.859 400.196 446.135 396.993 444.708C396.524 444.499 394.238 442.728 394.607 442.382C394.706 442.289 409.388 442.382 410.976 442.382C425.658 442.382 445.949 446.479 458.217 437.117C460.456 435.409 461.436 431.395 462.034 428.971C462.62 426.597 463.076 422.707 462.389 420.277C461.694 417.817 454.169 418.862 452.471 418.987C444.256 419.593 435.78 425.786 429.079 429.753C428.456 430.122 420.387 434.629 422.35 435.693C425.044 437.153 430.286 437.094 433.324 437.452C435.234 437.676 452.245 440.233 451.231 437.528C449.3 432.375 437.889 426.828 432.195 426.13C428.867 425.722 426.368 425.653 426.326 425.785C423.821 433.782 435.654 438.509 442.109 441.1C444.604 442.101 446.862 443.536 449.364 444.497C449.548 444.568 452.663 445.922 451.859 445.144C443.997 437.528 429.681 435.165 419.316 431.664C416.263 430.632 413.032 430.199 409.937 429.287C409.819 429.253 405.72 427.731 405.708 428.009C405.685 428.523 409.601 430.736 409.957 430.966C414.357 433.808 419.767 435.323 424.528 437.626C426.615 438.636 428.792 439.523 430.918 440.467C431.682 440.807 432.683 441.37 433.532 441.63C433.702 441.682 434.14 441.778 434.071 441.63C432.054 437.308 420.688 433.384 415.801 432.292C415.64 432.256 409.833 431.446 409.684 431.922C408.287 436.378 412.278 439.631 415.503 442.386C418.137 444.636 420.781 446.878 423.464 449.082C431.046 455.31 438.935 460.604 447.039 466.138C450.752 468.672 454.562 470.967 458.527 473.165C458.845 473.341 461.605 475.011 462.132 474.542C463.097 473.682 459.532 470.724 459.502 470.694C456.305 467.514 452.176 464.978 448.532 462.246C447.432 461.422 446.426 460.407 445.277 459.637C444.897 459.383 443.717 459.089 444.131 458.882C445.528 458.181 449.089 459.57 450.22 459.935C455.788 461.734 461.121 463.964 466.667 465.756C468.366 466.305 469.905 467.002 471.495 467.711C471.55 467.735 473.925 468.563 473.934 468.532C474.935 464.951 465.08 454.427 462.772 451.48C460.779 448.934 459.062 446.597 456.598 444.402C456.259 444.1 455.679 443.248 455.452 443.625C455.018 444.347 463.474 454.056 464.196 454.932C470.574 462.671 477.573 469.771 484.464 477.089C484.95 477.605 491.968 485.977 492.171 485.991C492.987 486.046 492.144 484.502 491.841 483.825C490.83 481.569 489.222 479.598 487.779 477.536C484.097 472.272 476.067 467.922 469.946 465.189C469.326 464.913 468.65 464.749 468.017 464.499C467.81 464.417 462.239 462.514 462.177 462.737C461.032 466.866 472.544 477.128 475.798 480.577C477.619 482.507 479.657 484.305 481.654 486.085C482.291 486.652 482.798 487.104 483.412 487.651C483.676 487.887 484.219 488.678 484.219 488.345C484.219 482.566 483.487 476.291 484.631 470.628C485.563 466.016 488.57 461.544 488.57 456.912C488.57 456.143 489.095 445.533 489.251 445.46C489.9 445.155 489.967 446.066 490.079 446.332C491.498 449.677 492.526 453.156 493.803 456.56C496.926 464.89 498.493 473.812 500.613 482.379C501.022 484.032 501.37 485.754 501.918 487.324C502.471 488.906 507.636 495.115 507.636 491.895M507.399 491.855C507.399 491.859 507.399 491.869 507.399 491.866C507.399 486.898 507.399 481.93 507.399 476.962C507.399 469.116 506.906 461.98 505.91 454.296C504.954 446.914 503.814 440.223 503.814 432.558C503.814 425.671 503.814 418.784 503.814 411.898C503.814 409.269 504.427 405.851 503.814 403.236C501.582 393.707 496.829 385.105 496.829 375.302C496.829 370.408 496.953 366.06 501.106 362.527C501.43 362.252 502.544 362.57 502.86 362.284C503.326 361.861 502.447 359.5 503.639 359.5M494.826 363.399C491.687 363.399 488.747 364.817 485.777 365.724C481.89 366.912 477.432 369.063 473.706 370.713C471.549 371.668 469.243 372.117 467.014 372.9C466.373 373.126 465.738 373.442 465.158 373.696C464.9 373.809 464.051 373.936 464.338 373.936C470.524 373.936 478.169 370.312 484.056 368.555C486.337 367.874 488.59 367.194 490.866 366.509C491.612 366.285 492.423 366.423 493.093 366.215C493.462 366.1 494.345 365.614 494.227 365.946C493.668 367.514 490.542 369.446 489.28 370.568C485.041 374.339 481.068 378.32 476.825 382.093C474.631 384.045 472.814 386.303 470.647 388.215C470.525 388.323 470.142 389.413 470.374 389.465C476.094 390.764 484.103 384.633 488.411 382.068C489.788 381.248 491.326 380.078 492.481 379.034C492.571 378.953 492.689 378.69 492.75 378.79C494.085 380.952 490.594 387.24 489.839 389.247C486.598 397.858 484.351 406.022 482.527 414.943C482.173 416.674 482.773 422.493 481.45 423.768C481.097 424.108 481.201 419.041 481.201 418.54C481.201 413.858 481.083 409.655 482.262 405.053C483.873 398.762 484.689 392.604 485.528 386.21C485.849 383.763 486.806 379.777 485.997 377.25C485.893 376.925 485.509 377.794 485.418 378.122C485.096 379.281 484.605 380.399 484.256 381.552C483.494 384.066 482.921 386.714 482.506 389.294C481.086 398.131 480.814 406.799 480.814 415.724C480.814 416.088 480.814 414.995 480.814 414.63C480.814 414.057 480.895 413.48 480.814 412.912C480.598 411.405 480.305 409.905 479.925 408.424C478.98 404.743 477.016 401.054 474.97 397.786C474.748 397.43 472.897 394.196 472.47 394.57C471.787 395.169 472.47 399.064 472.47 399.991C472.47 405.896 472.035 411.87 473.208 417.664C473.673 419.961 474.181 422.285 475.011 424.502C475.175 424.943 475.403 425.731 475.635 426.145C475.762 426.371 475.904 427.117 475.904 426.864C475.904 420.956 472.481 414.834 468.237 410.339C467.908 409.991 464.637 406.571 463.519 407.603C461.101 409.833 461.194 421.762 461.194 424.946C461.194 425.429 461.644 428.257 461.194 428.677C461.076 428.787 460.852 428.677 460.68 428.677C459.691 428.677 457.308 422.292 456.908 421.596C455.946 419.919 450.175 413.077 450.175 411.822C450.175 411.458 450.175 412.548 450.175 412.912C450.175 413.493 450.08 414.081 450.175 414.656C450.376 415.867 451.008 417.683 451.778 418.729C451.949 418.961 452.901 419.378 452.585 419.688C452.353 419.916 451.985 419.371 451.741 419.154C449.606 417.251 447.689 415.156 445.734 413.111C445.266 412.622 443.072 410.844 443.161 410.844M513.577 362.171C513.414 362.388 513.092 362.56 513.088 362.821C512.929 372.192 513.088 381.565 513.088 390.937C513.088 407.305 513.088 423.674 513.088 440.042C513.088 445.879 513.088 451.715 513.088 457.552C513.088 458.396 513.192 462.599 512.488 463.216C510.578 464.893 504 460.475 502.909 459.863C494.854 455.344 492.71 447.789 486.234 442.019C485.7 441.544 487.448 442.819 488.016 443.262C489.46 444.387 489.982 445.109 491.213 446.481C493.964 449.548 497.194 452.266 500.132 455.194C501.974 457.029 503.912 458.776 505.543 460.782C509.869 466.097 513.421 471.641 517.419 477.074C519.13 479.399 522.361 479.896 521.154 483.298C518.847 489.803 517.83 485.692 516.73 480.813C515.555 475.601 514.508 470.315 512.957 465.189C511.858 461.557 509.616 458.411 508.068 454.958C507.874 454.526 506.266 452.116 506.587 451.796C509.312 449.086 516.188 456.903 517.146 458.475C520.396 463.808 519.781 470.515 520.743 476.326C520.952 477.588 526.008 485.147 527.059 485.998C528.33 487.027 532.526 483.48 533.735 483.047C537.099 481.844 539.964 480.063 543.29 479.312C547.2 478.429 551.17 477.987 554.831 476.06C562.253 472.155 569.558 466.841 577.526 463.99C581.662 462.51 586.064 461.934 590.086 460.495C603.236 455.79 616.508 451.366 629.987 448.323C632.438 447.769 634.753 446.27 636.919 445.66C639.989 444.795 642.85 443.017 645.491 441.823C646.955 441.161 647.92 438.897 649.517 438.175C650.725 437.628 658.219 435.223 658.219 434.959M680.722 428.237C670.271 428.237 660.664 432.207 649.985 430.523C641.675 429.212 634.388 425.081 626.227 423.859C617.108 422.494 608.051 420.974 598.862 420.099C594.274 419.661 589.487 418.228 584.936 417.413C579.184 416.384 573.336 415.888 567.518 415.368C564.061 415.058 560.654 413.899 557.197 413.617C544.864 412.609 532.208 413.246 519.784 413.246M519.784 409.431C519.784 406.08 519.784 402.728 519.784 399.377C519.784 395.314 520.5 390.995 517.48 387.605C513.911 383.599 510.635 379.525 507.481 375.259C507.205 374.886 504.802 371.941 505.238 371.527C506.964 369.885 510.069 368.75 512.158 367.265C514.078 365.9 515.814 365.48 518.226 365.118C519.012 365 525.116 363.183 526.207 364.235C531.931 369.752 530.958 380.75 530.958 387.776C530.958 389.692 533.846 396.958 533.425 397.782C532.584 399.431 529.731 393.78 529.731 393.778C529.062 391.197 528.707 388.335 528.267 385.701C527.781 382.793 529.154 379.079 527.663 376.421C527.088 375.397 526.205 374.578 524.894 373.994C524.261 373.712 523.544 371.903 523.544 372.534C523.544 375.017 524.985 377.609 525.522 380.04C527.58 389.36 528.812 398.828 532.752 407.749C534.009 410.593 536.228 414.462 539.135 416.16C539.347 416.284 539.835 416.95 540.211 416.64C541.232 415.799 541.162 411.004 541.361 409.838C542.677 402.142 542.711 394.693 542.711 386.925C542.711 383.327 543.735 378.528 542.409 375.113C542.36 374.985 542.143 374.174 541.863 374.397C540.708 375.319 542.879 379.362 543.103 379.84C545.245 384.425 546.819 389.266 548.722 393.942C549.54 395.951 550.943 402.223 553.469 403.349C553.549 403.384 553.672 403.403 553.738 403.349C554.565 402.668 553.092 400.499 552.751 399.966C550.561 396.533 549.487 392.719 547.841 389.069C547.052 387.319 546.268 385.582 545.337 383.932C545.192 383.673 544.347 381.124 544.159 381.272C542.954 382.217 546.566 385.713 547.177 386.715C549.725 390.896 552.409 394.926 555.1 399.017C557.181 402.181 558.562 405.302 561.14 408.199C561.246 408.318 563.375 410.545 563.705 410.005C564.326 408.992 563.705 407.696 563.705 406.542C563.705 399.322 558.885 392.332 558.885 385.399C558.885 385.136 559.05 385.909 559.183 386.144C559.509 386.726 559.816 387.316 560.161 387.888C560.847 389.027 561.479 390.193 562.233 391.296C563.855 393.671 570.675 402.229 570.675 404.631C570.675 405.119 570.302 403.707 570.018 403.29C569.423 402.415 568.918 401.503 568.35 400.613C566.65 397.948 565.17 395.169 563.469 392.503C561.514 389.439 560.464 385.732 558.918 382.802C557.889 380.852 550.113 379.006 550.113 376.447M515.824 461.127C516.068 461.293 516.281 461.748 516.554 461.625C525.576 457.567 534.517 453.35 543.237 448.799C548.659 445.97 553.295 439.828 557.788 435.817C558.488 435.191 565.823 427.639 563.999 426.014C563.316 425.405 555.905 426.014 554.35 426.014C546.295 426.014 539.108 430.288 532.218 433.615C529.69 434.836 527.036 436.075 524.388 437.088C523.754 437.331 523.065 437.444 522.423 437.67C522.026 437.809 520.994 438.459 521.277 438.175C525.496 433.929 533.81 432.357 539.326 429.934C539.518 429.85 544.478 427.599 544.917 428.466C548.186 434.908 535.849 444.53 532.369 448.966C532.056 449.366 526.963 455.501 527.52 456.048C529.502 457.989 535.226 453.438 536.345 452.592C538.297 451.118 549.481 442.075 549.481 439.436C549.481 438.37 549.947 441.651 549.481 442.633C548.866 443.928 547.865 445.051 546.969 446.208C545.308 448.352 543.364 450.309 541.561 452.36C538.806 455.494 536.512 458.822 534.025 462.112C531.56 465.373 524.286 471.454 524.286 475.853C524.286 476.471 525.097 474.834 525.624 474.433C526.601 473.689 527.638 473.005 528.707 472.369C529.455 471.924 542.148 463.719 543.013 464.477C544.059 465.394 539.319 469.307 538.543 469.822C538.26 470.01 536.657 471.283 536.786 471.341C539.933 472.743 545.453 469.52 548.282 468.666C551.604 467.664 556.266 463.147 559.586 463.147C559.668 463.147 559.414 463.181 559.342 463.147C558.01 462.521 557.324 460.401 557.066 459.241C556.379 456.15 556.65 452.962 556.65 449.824C556.65 448.469 556.772 437.574 555.602 436.532C555.475 436.419 554.375 441.894 554.305 442.549C553.707 448.202 553.114 453.801 553.114 459.499C553.114 460.026 552.713 458.47 552.295 458.097M561.866 453.504C560.685 454.039 561.803 453.597 559.342 453.955C558.7 454.048 560.611 453.688 561.258 453.635C562.913 453.5 564.58 453.472 566.225 453.264C570.338 452.744 574.241 451.91 578.301 451.102C587.431 449.287 596.802 446.121 606.081 445.289C607.255 445.184 616.268 445.032 616.981 444.406C617.365 444.07 612.214 443.545 611.941 443.545C608.82 443.545 605.699 443.545 602.578 443.545C592.281 443.545 584.164 446.278 574.488 448.857C571.819 449.568 569.135 450.381 566.482 450.968C565.747 451.131 565.02 451.651 564.411 452.004C563.988 452.248 562.53 452.653 563.008 452.509C570.043 450.384 577.287 448.907 584.263 446.484C593.287 443.35 601.621 439.813 611.419 438.803C616.988 438.229 622.837 436.525 628.306 436.525C630.917 436.525 633.446 437.296 635.761 437.296C636.374 437.296 637.58 437.535 637.58 437.535C637.58 437.535 636.642 437.111 636.136 436.998C634.722 436.68 632.626 436.998 631.202 436.998C626.133 436.998 623.224 438.012 618.539 439.97C606.063 445.184 593.522 451.616 580.246 455.023C575.87 456.146 571.265 456.644 566.894 457.679C565.296 458.057 563.624 458.188 562.054 458.653C561.516 458.812 561.008 459.046 560.471 459.209C560.122 459.315 559.07 459.597 559.399 459.448C565.972 456.471 572.138 453.472 579.292 451.629C581.101 451.163 586.444 450.255 584.903 447.509C580.22 439.163 562.522 444.089 556.438 447.487C553.909 448.9 549.671 451.609 547.939 453.835C547.904 453.881 547.127 454.937 547.393 455.012C552.091 456.341 556.545 452.452 559.705 450.103C565.898 445.499 570.08 439.958 573.872 433.695C574.153 433.23 578.125 426.057 578.138 426.057C578.417 426.057 577.586 425.941 577.346 425.814C576.46 425.345 575.527 425 574.679 424.502C574.323 424.293 573.106 423.99 573.533 423.99C575.435 423.99 580.139 427.063 581.967 427.812C587.209 429.96 592.719 431.553 598.292 432.917C600.967 433.572 604.143 434.258 606.913 434.258C607.636 434.258 608.359 434.258 609.082 434.258C609.55 434.258 610.953 434.258 610.485 434.258C597.251 434.258 584.341 435.828 571.144 435.828C569.947 435.828 573.536 435.828 574.732 435.828C576.732 435.828 579.123 435.828 581.123 435.828C588.186 435.828 595.042 434.384 601.97 433.259C606.659 432.498 611.314 431.578 616.003 430.817C620 430.168 624.058 429.167 627.98 428.223C632.452 427.147 636.912 426.213 641.185 424.884C644.607 423.819 649.836 425.414 653.411 425.414C653.971 425.414 661.644 425.178 661.93 424.927C662.173 424.714 658.606 423.26 658.166 423.067C653.906 421.201 648.75 421.047 644.239 420.037C638.788 418.816 633.179 418.047 627.947 416.185C624.091 414.813 620.733 412.257 616.761 410.928C614.579 410.197 612.308 409.837 610.204 408.893M579.304 405.365C582.027 405.365 584.75 405.365 587.472 405.365C590.061 405.365 592.649 405.365 595.237 405.365C595.96 405.365 596.683 405.365 597.407 405.365C597.776 405.365 598.886 405.365 598.516 405.365C589.862 405.365 579.999 404.291 571.36 402.745C570.61 402.611 564.769 401.86 564.619 400.736C564.571 400.377 565.447 400.639 565.838 400.736C568.291 401.344 570.696 402.34 573.093 403.109C577.892 404.648 582.854 405.789 587.737 406.956C593.807 408.407 600.376 409.976 606.558 410.724C608.918 411.01 610.861 411.631 613.087 412.418C613.43 412.539 615.656 413.05 615.55 413.148C614.799 413.84 606.076 408.844 605.253 408.413C596.616 403.899 584.591 397.868 577.738 391.762C573.902 388.344 566.507 386.846 563.815 382.049C563.247 381.037 562.335 379.161 561.487 378.405C561.396 378.324 561.093 378.201 561.214 378.162C565.036 376.915 569.116 379.476 572.481 380.454C577.829 382.01 582.748 384.234 587.546 386.737C589.861 387.944 591.643 390.626 593.965 391.66C600.604 394.618 607.519 396.061 614.657 398.251C622.584 400.683 629.508 405.055 636.736 408.275C639.308 409.421 650.479 417.631 652.241 417.631" fill="none" opacity="1" stroke="#434469" stroke-linecap="round" stroke-linejoin="round" stroke-width="15" vectornator:layerName="Curve 1"/>
<path d="M502.442 461.622M397.349 463.706L397.878 526.741C396.962 526.164 397.349 463.706 397.349 463.706ZM398.176 462.403C616.688 462.1 616.688 462.1 616.688 462.1C616.688 462.1 508.781 400.415 398.176 462.403ZM397.268 526.741L474.471 469.373C474.471 469.373 495.449 453.785 502.442 448.589C509.435 443.393 502.442 448.589 502.442 448.589L615.78 526.438C615.78 526.438 507.873 464.753 397.268 526.741ZM617.685 463.706L618.214 526.741M541.949 469.455C552.965 470.949 560.182 476.742 569.098 481.69C573.002 483.857 577.275 485.621 580.919 488.062C582.664 489.232 584.101 490.67 585.74 491.934C587.18 493.044 588.829 496.379 590.155 495.181C591.565 493.908 588.323 492.091 587.122 490.686C582.58 485.369 576.02 480.543 569.931 476.411C568.101 475.17 566.159 474.037 564.195 472.935C562.559 472.017 558.392 468.871 559.141 470.357C560.257 472.571 563.299 473.774 565.45 475.424C567.427 476.941 569.546 478.336 571.521 479.854C579.081 485.665 586.321 490.904 594.875 495.785M532.729 460.884C532.729 461.291 532.455 461.762 532.729 462.104C536.232 466.49 540.01 470.735 543.92 474.893C545.69 476.775 549.338 478.845 551.261 479.593C551.395 479.645 551.574 479.727 551.576 479.846C551.576 479.853 549.686 479.846 546.389 479.846C544.818 479.846 543.247 479.846 541.675 479.846C537.899 479.846 534.123 479.846 530.346 479.846C517.484 479.846 503.468 481.099 490.762 479.312C487.094 478.796 483.47 477.43 479.849 476.701C478.208 476.37 476.551 476.061 474.972 475.571C474.39 475.39 472.514 475.269 473.138 475.269C491.64 475.269 508.907 480.56 527.344 481.788C532.953 482.162 538.518 482.2 544.169 482.2C544.393 482.2 544.748 482.364 544.84 482.2C546.928 478.465 538.409 474.892 535.569 473.49C529.111 470.304 522.425 466.632 515.4 464.278C510.256 462.555 500.917 461.786 496.914 458.571C496.85 458.52 503.555 457.588 505.133 457.494C509.881 457.21 514.41 456.844 519.129 456.217C529.503 454.839 539.358 452.983 549.407 450.938C554.181 449.967 554.978 453.9 558.546 453.9C559.159 453.9 557.345 453.707 556.748 453.598C553.948 453.087 555.674 453.51 553.552 452.937C550.77 452.186 547.968 451.243 545.191 450.681C536.223 448.869 527.018 449.05 517.991 446.614C508.027 443.924 497.747 444.027 487.226 444.027C485.032 444.027 479.899 443.216 477.848 444.027C475.473 444.967 472.461 444.762 470.161 445.671C464.169 448.042 457.546 449.449 450.547 450.844C442.265 452.496 428.522 452.398 425.573 459.415M545.429 459.191C534.019 459.191 522.609 459.191 511.199 459.191C506.559 459.191 501.299 459.739 496.716 459.191C485.644 457.867 475.517 457.208 464.055 457.208C460.571 457.208 456.14 456.641 452.711 457.208C448.05 457.98 443.747 460.39 439.33 461.712C435.253 462.933 426.455 464.634 423.729 467.926C421.286 470.875 419.908 474.417 417.998 477.439C417.681 477.941 415.535 482.36 415.021 481.486C414.104 479.927 413.929 477.198 413.929 475.379C413.929 474.74 413.929 474.101 413.929 473.462C413.929 473.126 413.929 472.118 413.929 472.454C413.929 474.914 413.929 477.374 413.929 479.834C413.929 486.63 416.882 505.792 408.006 505.792C407.129 505.792 409.789 505.724 410.602 505.462C411.116 505.296 411.611 505.09 412.085 504.858C414.84 503.511 417.492 501.926 420.061 500.448C428.132 495.805 436.247 492.409 445.477 490.531C448.733 489.868 452.056 490.244 455.241 489.352C456.808 488.912 460.209 489.095 460.209 489.095C460.209 489.095 457.727 488.789 456.577 489.095C454.169 489.735 453.032 491.881 450.877 492.734C447.666 494.004 442.615 492.652 439.726 493.794C439.499 493.884 439.274 493.976 439.045 494.064C438.672 494.207 430.211 495.81 430.211 494.602M436.297 480.687C444.742 480.687 453.187 480.687 461.632 480.687C465.212 480.687 468.792 480.687 472.371 480.687C473.97 480.687 475.568 480.687 477.167 480.687C477.573 480.687 482.883 481.047 483.126 480.687C483.224 480.541 483.226 480.334 483.126 480.189C483.101 480.152 480.865 480.042 480.545 479.887C477.814 478.558 475.083 477.726 472.041 476.909C461.88 474.18 451.352 474.035 440.915 472.633C439.963 472.506 429.8 469.804 429.759 469.492C429.602 468.285 432.775 469.314 434.275 469.162C439.11 468.672 443.896 468.369 448.733 468.028C462.164 467.08 475.952 467.64 489.476 467.64C491.079 467.64 502.785 467.522 503.467 467.008C504.666 466.103 499.02 465.878 498.61 465.837C493.975 465.369 489.463 465.062 484.747 465.062C472.601 465.062 469.452 465.692 460.301 471.487C458.258 472.781 454.351 473.879 452.894 475.032C452.813 475.096 452.894 475.72 452.894 475.82C452.894 476.501 466.406 480.442 468.785 481.694C475.708 485.339 488.894 488.3 497.467 484.697C500.003 483.631 513.735 484.697 516.955 484.697C519.746 484.697 532.937 484.965 532.937 483.575M567.347 457.928C572.277 457.928 577.676 458.047 582.567 458.047C582.92 458.047 581.911 457.826 581.623 457.661C581.321 457.488 581.067 457.262 580.752 457.105C580.59 457.025 580.38 457.028 580.21 456.959C578.696 456.349 577.233 455.634 575.651 455.126C575.14 454.962 574.594 454.841 574.087 454.7C574.059 454.692 573.14 454.418 573.155 454.446C574.789 457.417 577.718 459.918 579.206 463.101C582.961 471.136 584.27 480.468 584.27 489.044C584.27 489.607 584.41 498.607 584.27 498.717C583.553 499.285 581.868 495.017 581.412 494.526C579.017 491.943 576.449 490.313 572.562 489.373C563.713 487.232 556.502 490.496 547.621 486.305C546.251 485.659 543.089 484.672 542.328 483.485C542.073 483.089 543.382 483.194 543.927 483.112C547.272 482.605 550.645 482.158 554.095 481.879C556.043 481.722 557.992 481.564 559.941 481.406C563.911 481.085 584.071 483.106 581.653 476.636C581.061 475.054 578.586 473.338 577.249 472.17C568.172 464.24 557.483 463.733 544.898 463.733C542.896 463.733 547.173 464.166 547.646 464.166C547.953 464.166 548.874 464.166 548.567 464.166C536.543 464.166 525.466 466.346 513.965 469.036C508.599 470.291 503.107 471.383 497.641 472.331C489.392 473.761 480.844 474.385 475.507 480.048C474.381 481.243 472.92 481.68 472.126 482.937C471.831 483.403 472.126 484.536 472.126 485.069C472.126 488.835 478.418 488.142 482.257 487.718C487.842 487.101 492.999 484.698 498.686 484.122C507.122 483.268 516.842 482.75 525.352 483.474C528.825 483.77 533.458 483.658 536.766 484.485C540.1 485.318 544.029 486.619 547.21 487.897C550.968 489.406 556.684 490.201 561.006 490.858C563.58 491.249 565.872 492.374 568.412 492.884C570.639 493.331 580.24 496.105 581.549 495.576C582.318 495.265 582.638 493.352 582.821 492.835M582.821 492.835C575.785 492.835 563.492 493.927 556.121 492.691C552.653 492.109 549.257 491.412 545.779 490.829C543.875 490.51 541.501 491.294 539.651 490.829C537.22 490.218 534.51 489.38 531.931 488.985C525.995 488.076 520.821 490.223 516.025 486.372M594.689 496.989C595.59 498.39 594.577 500.392 595.893 501.677C598.75 504.464 608.319 506.478 608.319 510.72C608.319 510.915 608.319 510.33 608.319 510.135C608.319 509.757 608.319 509.379 608.319 509C608.319 507.974 608.319 506.948 608.319 505.922C608.319 502.535 608.319 499.149 608.319 495.762C608.319 489.187 607.717 483.247 606.245 477.047C605.707 474.781 604.076 472.974 602.953 471.17C602.342 470.189 600.634 469.24 601.443 469.24" fill="none" opacity="1" stroke="#2b2b45" stroke-linecap="round" stroke-linejoin="round" stroke-width="20" vectornator:layerName="Curve 2"/>
<g opacity="1" vectornator:layerName="Curve 3">
<path d="M595.094 475.188C594.506 475.121 593.915 475.165 593.312 475.344C590.903 476.058 589.505 478.591 590.219 481C585.341 481.971 587.238 481.118 585.344 481.969C583.736 482.69 588.919 481.778 590.625 482.219C591.036 482.325 590.901 483.033 591.031 483.438C591.294 484.25 591.548 485.063 591.812 485.875C592.058 486.629 592.298 487.377 592.562 488.125C592.649 488.483 592.653 488.897 592.719 489.25C592.789 489.632 592.981 489.981 593.125 490.344C592.907 490.24 592.652 490.201 592.438 490.094C591.498 489.623 590.66 489.181 589.75 488.656C587.963 487.625 586.213 486.507 584.469 485.406C584.028 485.128 583.598 484.838 583.156 484.562C582.713 484.286 581.346 483.985 581.812 483.75C584.444 482.422 580.469 482.938 580.469 482.938C582.085 484.254 583.669 485.61 585.25 486.969C586.434 487.986 587.62 488.999 588.844 489.969C590.083 490.951 591.359 491.891 592.688 492.75C593.871 493.515 595.119 494.18 596.344 494.875C598.12 495.882 599.946 496.921 601.906 497.531C602.977 497.865 604.615 498.208 605.562 497.375C606.351 496.681 607.045 495.488 606.5 494.406C606.146 493.704 605.678 493.187 605.281 492.531C604.952 491.988 604.702 491.374 604.406 490.812C603.814 489.687 603.165 488.615 602.5 487.531C601.849 486.471 601.202 485.391 600.531 484.344C600.499 484.293 600.47 484.238 600.438 484.188C599.959 482.252 599.481 480.333 598.969 478.406C598.433 476.599 596.856 475.386 595.094 475.188ZM599.656 492.812C599.67 492.83 599.673 492.858 599.688 492.875C599.656 492.865 599.625 492.854 599.594 492.844C599.614 492.832 599.637 492.825 599.656 492.812Z" fill="#2b2b45" stroke="none"/>
</g>
<g opacity="1" vectornator:layerName="Curve 4">
<path d="M578.844 477.406C577.498 477.514 576.109 477.584 574.781 477.844C572.491 478.292 570.264 479.031 568 479.594C564.411 480.486 560.775 481.21 557.156 481.969C560.775 482.728 564.411 483.452 568 484.344C570.264 484.907 572.491 485.645 574.781 486.094C576.109 486.354 577.498 486.423 578.844 486.531C581.357 486.531 583.375 484.482 583.375 481.969C583.375 479.456 581.357 477.406 578.844 477.406Z" fill="#2b2b45" stroke="none"/>
</g>
<g opacity="1" vectornator:layerName="Curve 5">
<path d="M459.625 472.5C455.391 472.897 451.201 473.372 447.062 474.375C445.25 474.814 443.466 475.511 441.719 476.156C439.68 476.91 437.696 477.785 435.781 478.812C433.969 479.784 432.213 480.872 430.438 481.906C429.501 482.451 428.599 483.002 427.594 483.406C425 484.449 422.891 484.798 421.906 487.688C422.252 487.127 422.631 486.596 423.156 486.188C424.527 485.12 426.371 485.23 428 484.969C429.163 484.782 430.28 484.436 431.406 484.094C434.662 483.104 437.859 482.034 441.25 481.625C444.602 481.221 448.018 481.355 451.375 481.531C454.265 481.683 457.17 481.615 460.062 481.594C462.572 481.467 464.502 479.322 464.375 476.812C464.248 474.303 462.135 472.373 459.625 472.5Z" fill="#2b2b45" stroke="none"/>
</g>
<g opacity="1" vectornator:layerName="Curve 6">
<path d="M427.25 478.938C426.946 478.876 426.711 478.864 426.812 479.062C427.86 481.12 426.809 479.057 425.406 479C422.893 479 420.875 481.018 420.875 483.531C420.875 483.718 420.947 483.882 420.969 484.062C420.669 484.159 420.392 484.26 420.031 484.375C418.969 484.712 417.904 485.002 416.844 485.344C416.81 485.355 416.785 485.399 416.75 485.406C416.147 485.526 415.484 485.409 414.906 485.656C414.502 485.829 414.086 485.995 413.781 486.312C413.487 486.618 413.282 487.055 413.188 487.469C413.098 487.859 413.122 488.277 413.25 488.656C413.374 489.023 413.619 489.335 413.906 489.594C414.783 490.381 416.145 489.952 417.094 489.531C417.115 489.531 417.135 489.532 417.156 489.531C417.856 489.52 418.551 489.442 419.25 489.406C420.381 489.348 421.526 489.287 422.656 489.219C423.817 489.149 424.966 489.097 426.125 489C427.172 488.913 428.223 488.787 429.25 488.562C430.091 488.379 430.929 488.183 431.781 488.062C432.789 487.92 433.841 487.976 434.781 487.406C435.105 487.21 435.463 487.03 435.719 486.75C436.124 486.306 436.587 485.828 436.75 485.25C436.999 484.367 437.097 483.397 436.906 482.5C436.751 481.769 436.224 481.172 435.75 480.594C435.487 480.273 435.08 480.077 434.719 479.875C433.707 479.309 432.446 479.123 431.312 479.062C430.262 479.006 429.207 479.133 428.156 479.094C427.934 479.085 427.554 478.999 427.25 478.938Z" fill="#2b2b45" stroke="none"/>
</g>
<path d="M652.471 559.102C652.471 553.48 657.399 548.923 663.477 548.923C669.556 548.923 674.484 553.48 674.484 559.102C674.484 564.724 669.556 569.281 663.477 569.281C657.399 569.281 652.471 564.724 652.471 559.102Z" fill="#2b2b45" fill-rule="nonzero" opacity="1" stroke="#2b2b45" stroke-linecap="butt" stroke-linejoin="round" stroke-width="10" vectornator:layerName="Oval 1"/>
<g opacity="1" vectornator:layerName="Curve 10">
<path d="M393.406 589.031C393.134 589.053 392.831 589.121 392.594 589.156C391.932 589.256 391.264 589.409 390.688 589.75C390.069 590.116 389.554 590.643 389.125 591.219C388.792 591.665 388.601 592.249 388.438 592.781C388.227 593.465 388.295 594.277 388.438 594.969C388.569 595.606 389.016 596.928 389.469 597.375C389.551 597.456 389.517 597.077 389.594 597.25C390.039 598.259 390.207 599.366 390.562 600.406C390.784 601.054 390.976 601.715 391.156 602.375C391.191 602.501 391.245 602.625 391.281 602.75C391.295 602.796 391.3 602.922 391.312 602.875C391.377 602.625 391.445 602.377 391.5 602.125C391.519 602.041 391.537 601.971 391.594 601.906C391.39 602.557 391.112 603.383 391.531 604C391.74 604.308 391.896 604.762 392.25 604.875C393.072 605.138 393.969 605.244 394.812 605.062C395.238 604.971 395.432 604.452 395.719 604.125C395.946 603.865 395.925 603.462 396 603.125C396.05 602.902 396.123 602.687 396.188 602.469C396.589 601.11 397.086 599.792 397.375 598.406C397.574 597.452 397.833 596.761 397.719 595.75C397.685 595.456 397.593 595.164 397.531 594.875C398.13 592.569 396.889 590.159 394.594 589.406C394.044 589.261 394.394 589.93 394.031 589.25C393.918 589.038 393.678 589.01 393.406 589.031ZM397.25 593.281C397.27 593.367 397.303 593.444 397.312 593.531C397.324 593.639 397.34 593.767 397.344 593.875C397.325 593.792 397.299 593.708 397.281 593.625C397.255 593.507 397.249 593.398 397.25 593.281ZM395.719 601.938C395.735 601.964 395.764 601.975 395.781 602C395.853 602.105 395.898 602.254 395.938 602.375C395.982 602.509 395.99 602.64 396 602.781C396.003 602.827 396.03 602.972 396 602.938C395.772 602.682 395.769 602.289 395.719 601.938Z" fill="#ffffff" stroke="none"/>
</g>
<g opacity="1" vectornator:layerName="Curve 11">
<path d="M392.25 589.844C391.659 589.82 391.057 589.904 390.469 590.125C388.117 591.011 386.927 593.648 387.812 596C388.502 597.719 389.48 599.609 389.906 601.312C390.157 602.314 389.942 603.476 390.062 604.5C390.337 606.832 391.47 608.966 393.688 609.969C395.755 610.904 397.996 610.481 399.812 609.219C400.486 608.751 401.091 608.216 401.688 607.656C401.788 607.562 401.9 607.469 402 607.375C402.069 607.31 402.247 607.153 402.156 607.125C402.442 607.022 402.708 606.896 403 606.812C403.778 606.59 404.349 606.467 405.156 606.375C407.172 606.146 409.255 606.102 411.281 606.031C414.334 605.924 417.364 605.805 420.406 605.5C425.398 605 430.378 604.237 435.406 604.25C436.877 604.254 438.454 604.248 439.906 604.531C441.381 604.819 442.795 605.388 444.25 605.75C445.205 605.988 445.978 606.096 446.969 606.219C452.634 606.918 458.388 606.447 464.062 606.125C458.468 605.827 452.788 605.672 447.312 604.375C446.441 604.168 445.702 603.995 444.875 603.688C443.43 603.151 442.064 602.411 440.594 601.938C439.007 601.426 437.271 601.202 435.625 601C429.33 600.228 422.971 600.615 416.656 600.156C413.595 599.934 410.565 599.319 407.5 599.156C405.573 599.054 403.574 599.132 401.656 599.344C400.537 599.467 399.571 599.772 398.625 600.188C398.616 600.115 398.636 600.041 398.625 599.969C398.257 597.513 397.166 595.112 396.344 592.781C395.679 591.018 394.022 589.914 392.25 589.844Z" fill="#ffffff" stroke="none"/>
</g>
<path d="M397.008 569.999L397.268 631.259C397.268 631.259 374.198 604.404 397.008 569.999ZM618.724 632.306L618.214 571.048C618.214 571.048 641.393 597.808 618.724 632.306ZM397.268 569.999L618.214 569.686M397.268 632.306L433.322 632.255L618.214 631.993M396.743 587.659C394.964 589.352 395.372 592.468 395.372 594.731C395.372 596.421 394.607 600.293 395.372 601.824C398.063 607.206 408.868 605.877 414.231 607.218C415.459 607.525 425.883 609.401 426.677 608.668C427.301 608.091 424.382 605.034 424.084 604.61C421.568 601.02 418.288 597.765 415.661 594.27C414.19 592.312 408.376 579.399 407.471 579.399C407.032 579.399 408.355 579.531 408.747 579.727C409.266 579.986 410.201 580.217 410.784 580.417C412.814 581.117 415.4 581.505 417.568 581.505C424.204 581.505 430.693 582.593 437.216 582.593C456.802 582.593 476.609 582.955 496.32 582.955C510.081 582.955 526.667 580.758 539.808 584.043C545.141 585.376 551.993 582.898 557.221 584.699C561.896 586.309 577.178 589.045 582.188 586.502C584.697 585.228 597.793 586.502 601.707 586.502C602.68 586.502 607.155 587.123 607.777 586.502C608.728 585.55 606.217 583.971 606.217 583.333M615.207 583.661C607.916 583.661 602.024 580.432 595.484 579.091C587.929 577.543 579.987 577.731 571.838 577.731C569.336 577.731 566.067 577.137 563.678 577.731C560.378 578.55 557.669 580.287 555.1 581.441C549.955 583.751 544.367 589.322 545.962 595.7C546.955 599.673 551.452 602.848 554.37 605.161C563.768 612.611 573.085 616.853 585.303 616.853C587.188 616.853 589.983 617.414 591.759 616.853C596.253 615.433 600.761 611.156 604.822 609.095C611 605.959 612.364 600.068 616.185 596.42C616.362 596.252 620.128 596.239 620.303 596.42C622.576 598.769 620.61 612.132 618.083 610.878C617.205 610.443 617.785 606.066 617.785 605.137C617.785 601.699 619.01 591.259 617.785 588.25C615.528 582.708 610.95 581.038 605.656 581.038C605.169 581.038 603.184 580.752 602.865 581.038C600.47 583.182 607.21 589.937 608.045 591.21C613.387 599.358 616.002 603.723 616.002 614.196C616.002 615.317 616.559 618.318 616.002 619.46C615.529 620.428 609.677 619.763 608.566 619.763C600.858 619.763 593.15 619.763 585.442 619.763C574.676 619.763 563.114 621.099 552.488 619.763C547.141 619.091 541.639 615.063 536.818 612.86C529.652 609.584 521.994 607.898 514.175 607.898C509.429 607.898 504.853 605.936 500.174 605.206C494.407 604.306 488.315 604.734 482.453 604.734M400.274 615.914C401.724 615.914 402.93 617.103 404.153 617.881C407.311 619.891 409.196 620.589 412.194 622.088C413.308 622.645 416.568 622.088 417.767 622.088C424.942 622.088 432.041 622.035 438.672 620.354C444.192 618.955 450.256 618.656 456.224 618.656C458.989 618.656 462.621 619.323 465.253 618.656C468.884 617.736 473.513 618.769 476.994 617.553C481.72 615.904 488.069 615.785 493.235 615.785C501.75 615.785 508.914 617.311 516.867 619.962C519.431 620.817 525.502 619.527 527.376 621.288C527.735 621.625 529.988 621.288 530.466 621.288C532.829 621.288 535.158 621.616 537.349 621.616C538.316 621.616 539.283 621.616 540.25 621.616C540.796 621.616 542.435 621.616 541.889 621.616C530.408 621.616 518.926 621.616 507.445 621.616C504.753 621.616 499.102 624.072 496.255 622.649C492.97 621.006 488.61 621.799 484.961 620.881C481.154 619.923 477.362 618.674 473.736 617.538C465.756 615.04 456.459 612.862 450.323 606.726C444.909 601.311 440.504 601.625 433.486 600.721C432.884 600.644 424.088 598.419 425.644 596.837C426.4 596.069 431.824 596.837 432.885 596.837C439.518 596.837 446.15 596.837 452.782 596.837C478.465 596.837 504.012 597.2 529.601 597.2C535.385 597.2 542.718 596.163 548.316 597.562C551.905 598.46 556.063 597.026 559.66 597.925C563.33 598.842 567.584 597.368 571.262 598.288C575.33 599.305 580.942 597.754 584.632 599.599C587.961 601.263 594.674 600.234 598.519 600.234C598.99 600.234 600.059 600.007 600.059 600.528" fill="none" opacity="1" stroke="#ffffff" stroke-linecap="round" stroke-linejoin="round" stroke-width="20" vectornator:layerName="Curve 12"/>
<path d="M397.005 593.878L397.265 631.66C397.265 631.66 374.202 615.098 397.005 593.878ZM618.664 632.306L618.155 594.525C618.155 594.525 641.328 611.03 618.664 632.306ZM397.265 593.878L618.155 593.685M397.265 632.306L433.31 632.275L618.155 632.113M396.74 604.77C394.962 605.814 395.37 607.736 395.37 609.132C395.37 610.174 394.605 612.562 395.37 613.506C398.06 616.826 408.862 616.006 414.224 616.833C415.452 617.022 425.873 618.18 426.667 617.727C427.291 617.372 424.372 615.486 424.075 615.225C421.559 613.011 418.28 611.003 415.654 608.847C414.183 607.64 408.37 599.676 407.466 599.676C407.027 599.676 408.349 599.757 408.742 599.878C409.26 600.038 410.195 600.18 410.778 600.304C412.807 600.735 415.393 600.975 417.56 600.975C424.195 600.975 430.682 601.645 437.204 601.645C456.785 601.645 476.586 601.869 496.292 601.869C510.049 601.869 526.631 600.514 539.769 602.54C545.1 603.362 551.95 601.834 557.177 602.944C561.851 603.937 577.129 605.625 582.139 604.056C584.647 603.271 597.739 604.056 601.653 604.056C602.625 604.056 607.099 604.439 607.72 604.056C608.671 603.47 606.161 602.496 606.161 602.102M615.148 602.304C607.859 602.304 601.969 600.313 595.431 599.486C587.878 598.531 579.938 598.647 571.791 598.647C569.29 598.647 566.022 598.281 563.632 598.647C560.333 599.152 557.625 600.224 555.057 600.935C549.914 602.359 544.327 605.796 545.921 609.729C546.914 612.18 551.41 614.138 554.327 615.565C563.722 620.159 573.038 622.775 585.252 622.775C587.137 622.775 589.931 623.122 591.707 622.775C596.2 621.899 600.706 619.262 604.766 617.991C610.943 616.057 612.306 612.423 616.127 610.173C616.303 610.069 620.068 610.062 620.243 610.173C622.515 611.622 620.551 619.863 618.023 619.09C617.146 618.822 617.726 616.123 617.726 615.549C617.726 613.429 618.951 606.99 617.726 605.134C615.469 601.716 610.893 600.687 605.6 600.687C605.113 600.687 603.129 600.51 602.809 600.687C600.416 602.009 607.154 606.175 607.988 606.96C613.33 611.986 615.943 614.677 615.943 621.137C615.943 621.828 616.501 623.679 615.943 624.384C615.471 624.98 609.62 624.57 608.51 624.57C600.803 624.57 593.097 624.57 585.391 624.57C574.628 624.57 563.069 625.394 552.445 624.57C547.1 624.156 541.6 621.672 536.78 620.313C529.615 618.293 521.959 617.252 514.142 617.252C509.398 617.252 504.823 616.042 500.145 615.592C494.38 615.037 488.289 615.301 482.428 615.301M400.271 622.196C401.72 622.196 402.926 622.929 404.149 623.409C407.306 624.649 409.19 625.079 412.188 626.004C413.301 626.347 416.56 626.004 417.759 626.004C424.933 626.004 432.029 625.971 438.658 624.935C444.178 624.072 450.24 623.887 456.206 623.887C458.97 623.887 462.601 624.299 465.233 623.887C468.863 623.32 473.491 623.957 476.971 623.207C481.696 622.19 488.043 622.117 493.208 622.117C501.721 622.117 508.883 623.058 516.834 624.693C519.397 625.22 525.466 624.425 527.34 625.511C527.699 625.719 529.951 625.511 530.429 625.511C532.792 625.511 535.12 625.713 537.311 625.713C538.277 625.713 539.244 625.713 540.211 625.713C540.757 625.713 542.395 625.713 541.849 625.713C530.371 625.713 518.893 625.713 507.414 625.713C504.723 625.713 499.073 627.228 496.227 626.35C492.943 625.337 488.584 625.826 484.936 625.26C481.13 624.669 477.339 623.898 473.714 623.198C465.736 621.657 456.441 620.314 450.307 616.53C444.894 613.19 440.49 613.383 433.474 612.826C432.872 612.778 424.079 611.406 425.634 610.431C426.39 609.957 431.812 610.431 432.874 610.431C439.504 610.431 446.135 610.431 452.765 610.431C478.442 610.431 503.982 610.654 529.565 610.654C535.347 610.654 542.678 610.015 548.274 610.878C551.863 611.431 556.02 610.547 559.615 611.102C563.284 611.667 567.538 610.758 571.215 611.325C575.282 611.952 580.892 610.996 584.581 612.134C587.91 613.16 594.621 612.526 598.465 612.526C598.935 612.526 600.004 612.386 600.004 612.707" fill="none" opacity="1" stroke="#e8e8e9" stroke-linecap="round" stroke-linejoin="round" stroke-width="20" vectornator:layerName="Curve 13"/>
<path d="M497.338 600.996C497.338 592.068 503.642 584.831 511.419 584.831C519.196 584.831 525.501 592.068 525.501 600.996C525.501 609.924 519.196 617.161 511.419 617.161C503.642 617.161 497.338 609.924 497.338 600.996Z" fill="#ce2e59" fill-rule="nonzero" opacity="1" stroke="#ce2e59" stroke-linecap="butt" stroke-linejoin="round" stroke-width="10" vectornator:layerName="Oval 2"/>
<path d="M479.079 600.996C479.079 582.779 493.818 568.01 512 568.01C530.182 568.01 544.921 582.779 544.921 600.996C544.921 619.214 530.182 633.982 512 633.982C493.818 633.982 479.079 619.214 479.079 600.996Z" fill="#fecb62" fill-opacity="0" fill-rule="nonzero" opacity="1" stroke="#ce2e59" stroke-linecap="butt" stroke-linejoin="round" stroke-width="10" vectornator:layerName="Oval 3"/>
<path d="M497.338 632.306L479.079 662.744M502.141 633.982L492.535 668.151M487.909 649.365L494.682 652.322L488.508 666.464L481.735 663.507L487.909 649.365Z" fill="#ce2e59" fill-rule="nonzero" opacity="1" stroke="#ce2e59" stroke-linecap="square" stroke-linejoin="round" stroke-width="10" vectornator:layerName="Curve 14"/>
<path d="M518.925 635.333L536.739 674.922M523.708 633.122L550.839 669.332M529.435 656.912L534.081 655.255L536.762 654.298L546.552 670.947L539.225 673.561L529.435 656.912Z" fill="#ce2e59" fill-rule="nonzero" opacity="1" stroke="#ce2e59" stroke-linecap="square" stroke-linejoin="round" stroke-width="10" vectornator:layerName="Curve 16"/>
</g>
</svg>
